solid Nova_moute_case_v2
facet normal 0.0 0.0 -1.0
  outer loop
    vertex 3.0 4.999999999999999 0.0
    vertex 5.792893218813452 3.207106781186547 7.049916206369744e-16
    vertex 3.0 0.0 0.0
  endloop
endfacet
facet normal 0.0 0.0 -1.0
  outer loop
    vertex 5.792893218813452 3.207106781186547 7.049916206369744e-16
    vertex 3.0 4.999999999999999 0.0
    vertex 6.0 3.366025403784438 7.049916206369744e-16
  endloop
endfacet
facet normal 0.0 0.0 -1.0
  outer loop
    vertex 6.0 3.366025403784438 7.049916206369744e-16
    vertex 3.0 4.999999999999999 0.0
    vertex 6.241180954897478 3.4659258262890673 7.049916206369744e-16
  endloop
endfacet
facet normal 0.0 0.0 -1.0
  outer loop
    vertex 6.241180954897478 3.4659258262890673 7.049916206369744e-16
    vertex 3.0 4.999999999999999 0.0
    vertex 12.0 4.999999999999999 0.0
  endloop
endfacet
facet normal 0.0 0.0 -1.0
  outer loop
    vertex 3.0 0.0 0.0
    vertex 5.792893218813452 3.207106781186547 7.049916206369744e-16
    vertex 5.633974596215561 2.9999999999999996 7.049916206369744e-16
  endloop
endfacet
facet normal 0.0 0.0 -1.0
  outer loop
    vertex 3.0 0.0 0.0
    vertex 5.633974596215561 2.9999999999999996 7.049916206369744e-16
    vertex 5.534074173710931 2.7588190451025203 7.049916206369744e-16
  endloop
endfacet
facet normal 0.0 0.0 -1.0
  outer loop
    vertex 3.0 0.0 0.0
    vertex 5.534074173710931 2.7588190451025203 7.049916206369744e-16
    vertex 5.5 2.4999999999999996 7.049916206369744e-16
  endloop
endfacet
facet normal 0.0 0.0 -1.0
  outer loop
    vertex 6.241180954897478 3.4659258262890673 7.049916206369744e-16
    vertex 12.0 4.999999999999999 0.0
    vertex 6.499999999999999 3.499999999999999 7.049916206369744e-16
  endloop
endfacet
facet normal 0.0 0.0 -1.0
  outer loop
    vertex 6.499999999999999 3.499999999999999 7.049916206369744e-16
    vertex 12.0 4.999999999999999 0.0
    vertex 6.758819045102519 3.4659258262890673 7.049916206369744e-16
  endloop
endfacet
facet normal 0.0 0.0 -1.0
  outer loop
    vertex 6.758819045102519 3.4659258262890673 7.049916206369744e-16
    vertex 12.0 4.999999999999999 0.0
    vertex 6.999999999999998 3.366025403784438 7.049916206369744e-16
  endloop
endfacet
facet normal 0.0 0.0 -1.0
  outer loop
    vertex 6.999999999999998 3.366025403784438 7.049916206369744e-16
    vertex 12.0 4.999999999999999 0.0
    vertex 7.207106781186546 3.207106781186547 7.049916206369744e-16
  endloop
endfacet
facet normal 0.0 0.0 -1.0
  outer loop
    vertex 7.207106781186546 3.207106781186547 7.049916206369744e-16
    vertex 12.0 4.999999999999999 0.0
    vertex 7.3072452687515135 3.076603763393938 7.049916206369744e-16
  endloop
endfacet
facet normal 0.0 0.0 -1.0
  outer loop
    vertex 7.3072452687515135 3.076603763393938 7.049916206369744e-16
    vertex 12.0 4.999999999999999 0.0
    vertex 7.3660254037844375 3.0 7.049916206369744e-16
  endloop
endfacet
facet normal 0.0 0.0 -1.0
  outer loop
    vertex 7.3660254037844375 3.0 7.049916206369744e-16
    vertex 12.0 4.999999999999999 0.0
    vertex 7.465925826289067 2.7588190451025207 7.049916206369744e-16
  endloop
endfacet
facet normal 0.0 0.0 -1.0
  outer loop
    vertex 7.465925826289067 2.7588190451025207 7.049916206369744e-16
    vertex 12.0 4.999999999999999 0.0
    vertex 7.499999999999999 2.4999999999999996 7.049916206369744e-16
  endloop
endfacet
facet normal 0.0 0.0 -1.0
  outer loop
    vertex 3.0 0.0 0.0
    vertex 6.241180954897479 1.5340741737109316 7.049916206369744e-16
    vertex 12.0 0.0 0.0
  endloop
endfacet
facet normal 0.0 0.0 -1.0
  outer loop
    vertex 6.241180954897479 1.5340741737109316 7.049916206369744e-16
    vertex 3.0 0.0 0.0
    vertex 6.0 1.6339745962155612 7.049916206369744e-16
  endloop
endfacet
facet normal 0.0 0.0 -1.0
  outer loop
    vertex 6.0 1.6339745962155612 7.049916206369744e-16
    vertex 3.0 0.0 0.0
    vertex 5.792893218813452 1.7928932188134525 7.049916206369744e-16
  endloop
endfacet
facet normal 0.0 0.0 -1.0
  outer loop
    vertex 5.792893218813452 1.7928932188134525 7.049916206369744e-16
    vertex 3.0 0.0 0.0
    vertex 5.633974596215562 1.9999999999999996 7.049916206369744e-16
  endloop
endfacet
facet normal 0.0 0.0 -1.0
  outer loop
    vertex 5.633974596215562 1.9999999999999996 7.049916206369744e-16
    vertex 3.0 0.0 0.0
    vertex 5.534074173710931 2.2411809548974784 7.049916206369744e-16
  endloop
endfacet
facet normal 0.0 0.0 -1.0
  outer loop
    vertex 5.534074173710931 2.2411809548974784 7.049916206369744e-16
    vertex 3.0 0.0 0.0
    vertex 5.5 2.4999999999999996 7.049916206369744e-16
  endloop
endfacet
facet normal 0.0 0.0 -1.0
  outer loop
    vertex 5.792893218813452 1.7928932188134525 7.049916206369744e-16
    vertex 5.633974596215562 1.9999999999999996 7.049916206369744e-16
    vertex 5.692754731248486 1.9233962366060608 7.049916206369744e-16
  endloop
endfacet
facet normal 0.0 0.0 -1.0
  outer loop
    vertex 12.0 0.0 0.0
    vertex 6.241180954897479 1.5340741737109316 7.049916206369744e-16
    vertex 6.499999999999999 1.5 7.049916206369744e-16
  endloop
endfacet
facet normal 0.0 0.0 -1.0
  outer loop
    vertex 12.0 0.0 0.0
    vertex 6.499999999999999 1.5 7.049916206369744e-16
    vertex 6.758819045102521 1.534074173710932 7.049916206369744e-16
  endloop
endfacet
facet normal 0.0 0.0 -1.0
  outer loop
    vertex 12.0 0.0 0.0
    vertex 6.758819045102521 1.534074173710932 7.049916206369744e-16
    vertex 7.0 1.6339745962155618 7.049916206369744e-16
  endloop
endfacet
facet normal 0.0 0.0 -1.0
  outer loop
    vertex 12.0 0.0 0.0
    vertex 7.0 1.6339745962155618 7.049916206369744e-16
    vertex 7.207106781186547 1.7928932188134528 7.049916206369744e-16
  endloop
endfacet
facet normal 0.0 0.0 -1.0
  outer loop
    vertex 12.0 0.0 0.0
    vertex 7.207106781186547 1.7928932188134528 7.049916206369744e-16
    vertex 7.366025403784438 2.0 7.049916206369744e-16
  endloop
endfacet
facet normal 0.0 0.0 -1.0
  outer loop
    vertex 12.0 0.0 0.0
    vertex 7.366025403784438 2.0 7.049916206369744e-16
    vertex 7.465925826289067 2.2411809548974793 7.049916206369744e-16
  endloop
endfacet
facet normal 0.0 0.0 -1.0
  outer loop
    vertex 12.0 0.0 0.0
    vertex 7.465925826289067 2.2411809548974793 7.049916206369744e-16
    vertex 7.499999999999999 2.4999999999999996 7.049916206369744e-16
  endloop
endfacet
facet normal 0.0 0.0 -1.0
  outer loop
    vertex 12.0 0.0 0.0
    vertex 7.499999999999999 2.4999999999999996 7.049916206369744e-16
    vertex 12.0 4.999999999999999 0.0
  endloop
endfacet
facet normal -0.0 1.0 -0.0
  outer loop
    vertex -0.9999999999999999 4.999999999999999 -9.3
    vertex 3.0 4.999999999999999 -6.3
    vertex 12.000000000000004 4.999999999999999 -9.3
  endloop
endfacet
facet normal -0.0 1.0 -0.0
  outer loop
    vertex 3.0 4.999999999999999 -6.3
    vertex -0.9999999999999999 4.999999999999999 -9.3
    vertex 0.0 4.999999999999999 3.0
  endloop
endfacet
facet normal -0.0 1.0 -0.0
  outer loop
    vertex 0.0 4.999999999999999 3.0
    vertex -0.9999999999999999 4.999999999999999 -9.3
    vertex -0.9999999999999999 4.999999999999999 83.0
  endloop
endfacet
facet normal -0.0 1.0 -0.0
  outer loop
    vertex 3.0 4.999999999999999 -6.3
    vertex 0.0 4.999999999999999 3.0
    vertex 3.0 4.999999999999999 0.0
  endloop
endfacet
facet normal -0.0 1.0 -0.0
  outer loop
    vertex 3.0 4.999999999999999 0.0
    vertex 0.0 4.999999999999999 3.0
    vertex 12.0 4.999999999999999 0.0
  endloop
endfacet
facet normal -0.0 1.0 -0.0
  outer loop
    vertex 0.0 4.999999999999999 3.0
    vertex -0.9999999999999999 4.999999999999999 83.0
    vertex 0.0 4.999999999999999 83.0
  endloop
endfacet
facet normal -0.0 1.0 -0.0
  outer loop
    vertex 1.0000000000000002 4.999999999999999 83.0
    vertex 3.0 4.999999999999999 3.0
    vertex 1.0000000000000002 4.999999999999999 3.0
  endloop
endfacet
facet normal -0.0 1.0 -0.0
  outer loop
    vertex 3.0 4.999999999999999 3.0
    vertex 1.0000000000000002 4.999999999999999 83.0
    vertex 3.0 4.999999999999999 78.0
  endloop
endfacet
facet normal -0.0 1.0 -0.0
  outer loop
    vertex 3.0 4.999999999999999 78.0
    vertex 1.0000000000000002 4.999999999999999 83.0
    vertex 3.0 4.999999999999999 83.0
  endloop
endfacet
facet normal -0.0 1.0 -0.0
  outer loop
    vertex 0.0 4.999999999999999 3.0
    vertex 12.0 4.999999999999999 3.0
    vertex 12.0 4.999999999999999 0.0
  endloop
endfacet
facet normal -0.0 1.0 -0.0
  outer loop
    vertex 12.0 4.999999999999999 3.0
    vertex 0.0 4.999999999999999 3.0
    vertex 1.0000000000000002 4.999999999999999 3.0
  endloop
endfacet
facet normal -0.0 1.0 -0.0
  outer loop
    vertex 12.0 4.999999999999999 3.0
    vertex 1.0000000000000002 4.999999999999999 3.0
    vertex 3.0 4.999999999999999 3.0
  endloop
endfacet
facet normal -0.0 1.0 -0.0
  outer loop
    vertex 12.000000000000004 4.999999999999999 -6.3
    vertex 12.000000000000004 4.999999999999999 -9.3
    vertex 3.0 4.999999999999999 -6.3
  endloop
endfacet
facet normal 1.0 0.0 0.0
  outer loop
    vertex 12.0 4.999999999999999 0.0
    vertex 12.0 0.0 3.0
    vertex 12.0 0.0 0.0
  endloop
endfacet
facet normal 1.0 0.0 0.0
  outer loop
    vertex 12.0 0.0 3.0
    vertex 12.0 4.999999999999999 0.0
    vertex 12.0 4.999999999999999 3.0
  endloop
endfacet
facet normal 0.0 -1.0 0.0
  outer loop
    vertex 12.0 0.0 3.0
    vertex 3.0 0.0 0.0
    vertex 12.0 0.0 0.0
  endloop
endfacet
facet normal 0.0 -1.0 0.0
  outer loop
    vertex 3.0 0.0 78.0
    vertex 1.0000000000000002 0.0 3.0
    vertex 3.0 0.0 3.0
  endloop
endfacet
facet normal 0.0 -1.0 0.0
  outer loop
    vertex 1.0000000000000002 0.0 3.0
    vertex 3.0 0.0 78.0
    vertex 1.0000000000000002 0.0 83.0
  endloop
endfacet
facet normal 0.0 -1.0 0.0
  outer loop
    vertex 1.0000000000000002 0.0 83.0
    vertex 3.0 0.0 78.0
    vertex 3.0 0.0 83.0
  endloop
endfacet
facet normal 0.0 -1.0 0.0
  outer loop
    vertex 12.000000000000004 0.0 -6.3
    vertex -0.9999999999999999 0.0 -9.3
    vertex 12.000000000000004 0.0 -9.3
  endloop
endfacet
facet normal 0.0 -1.0 0.0
  outer loop
    vertex -0.9999999999999999 0.0 -9.3
    vertex 12.000000000000004 0.0 -6.3
    vertex 3.0 0.0 -6.3
  endloop
endfacet
facet normal 0.0 -1.0 0.0
  outer loop
    vertex -0.9999999999999999 0.0 -9.3
    vertex 3.0 0.0 -6.3
    vertex 0.0 0.0 3.0
  endloop
endfacet
facet normal 0.0 -1.0 0.0
  outer loop
    vertex -0.9999999999999999 0.0 -9.3
    vertex 0.0 0.0 3.0
    vertex -0.9999999999999999 0.0 83.0
  endloop
endfacet
facet normal 0.0 -1.0 0.0
  outer loop
    vertex 0.0 0.0 3.0
    vertex 3.0 0.0 -6.3
    vertex 3.0 0.0 0.0
  endloop
endfacet
facet normal 0.0 -1.0 0.0
  outer loop
    vertex 0.0 0.0 3.0
    vertex 3.0 0.0 0.0
    vertex 12.0 0.0 3.0
  endloop
endfacet
facet normal 0.0 -1.0 0.0
  outer loop
    vertex 0.0 0.0 3.0
    vertex 12.0 0.0 3.0
    vertex 3.0 0.0 3.0
  endloop
endfacet
facet normal 0.0 -1.0 0.0
  outer loop
    vertex 0.0 0.0 3.0
    vertex 3.0 0.0 3.0
    vertex 1.0000000000000002 0.0 3.0
  endloop
endfacet
facet normal 0.0 -1.0 0.0
  outer loop
    vertex -0.9999999999999999 0.0 83.0
    vertex 0.0 0.0 3.0
    vertex 0.0 0.0 83.0
  endloop
endfacet
facet normal -0.0 -0.0 1.0
  outer loop
    vertex 1.0000000000000002 2.9999999999999996 3.0
    vertex 0.0 4.999999999999999 3.0
    vertex 0.0 2.9999999999999996 3.0
  endloop
endfacet
facet normal -0.0 -0.0 1.0
  outer loop
    vertex 0.0 4.999999999999999 3.0
    vertex 1.0000000000000002 2.9999999999999996 3.0
    vertex 1.0000000000000002 4.999999999999999 3.0
  endloop
endfacet
facet normal -1.0 0.0 0.0
  outer loop
    vertex -0.9999999999999999 4.999999999999999 83.0
    vertex -0.9999999999999999 0.0 -9.3
    vertex -0.9999999999999999 0.0 83.0
  endloop
endfacet
facet normal -1.0 0.0 0.0
  outer loop
    vertex -0.9999999999999999 0.0 -9.3
    vertex -0.9999999999999999 4.999999999999999 83.0
    vertex -0.9999999999999999 4.999999999999999 -9.3
  endloop
endfacet
facet normal -0.0 -0.0 1.0
  outer loop
    vertex 1.0000000000000002 0.0 3.0
    vertex 0.0 1.9999999999999996 3.0
    vertex 0.0 0.0 3.0
  endloop
endfacet
facet normal -0.0 -0.0 1.0
  outer loop
    vertex 0.0 1.9999999999999996 3.0
    vertex 1.0000000000000002 0.0 3.0
    vertex 1.0000000000000002 1.9999999999999996 3.0
  endloop
endfacet
facet normal -2.06929008995739e-30 -9.309904229350263e-32 1.0
  outer loop
    vertex 3.0 0.0 83.0
    vertex 1.0000000000000002 1.9999999999999996 83.0
    vertex 1.0000000000000002 0.0 83.0
  endloop
endfacet
facet normal -2.06929008995739e-30 -9.309904229350263e-32 1.0
  outer loop
    vertex 1.0000000000000002 1.9999999999999996 83.0
    vertex 3.0 0.0 83.0
    vertex 1.8686291501015246 1.368629150101523 83.0
  endloop
endfacet
facet normal -2.06929008995739e-30 -9.309904229350263e-32 1.0
  outer loop
    vertex 1.0000000000000002 1.9999999999999996 83.0
    vertex 1.8686291501015246 1.368629150101523 83.0
    vertex 1.6143593539448986 1.699999999999999 83.0
  endloop
endfacet
facet normal -2.06929008995739e-30 -9.309904229350263e-32 1.0
  outer loop
    vertex 1.0000000000000002 1.9999999999999996 83.0
    vertex 1.6143593539448986 1.699999999999999 83.0
    vertex 1.0000000000000002 2.9999999999999996 83.0
  endloop
endfacet
facet normal -2.06929008995739e-30 -9.309904229350263e-32 1.0
  outer loop
    vertex 1.0000000000000002 2.9999999999999996 83.0
    vertex 1.6143593539448986 1.699999999999999 83.0
    vertex 1.4545186779374912 2.0858895278359655 83.0
  endloop
endfacet
facet normal -2.06929008995739e-30 -9.309904229350263e-32 1.0
  outer loop
    vertex 1.0000000000000002 2.9999999999999996 83.0
    vertex 1.4545186779374912 2.0858895278359655 83.0
    vertex 1.0000000000000002 4.999999999999999 83.0
  endloop
endfacet
facet normal -2.06929008995739e-30 -9.309904229350263e-32 1.0
  outer loop
    vertex 1.0000000000000002 4.999999999999999 83.0
    vertex 1.4545186779374912 2.0858895278359655 83.0
    vertex 1.4000000000000004 2.499999999999999 83.0
  endloop
endfacet
facet normal -2.06929008995739e-30 -9.309904229350263e-32 1.0
  outer loop
    vertex 1.8686291501015246 1.368629150101523 83.0
    vertex 3.0 0.0 83.0
    vertex 2.200000000000001 1.1143593539448975 83.0
  endloop
endfacet
facet normal -2.06929008995739e-30 -9.309904229350263e-32 1.0
  outer loop
    vertex 2.200000000000001 1.1143593539448975 83.0
    vertex 3.0 0.0 83.0
    vertex 2.5858895278359677 0.9545186779374903 83.0
  endloop
endfacet
facet normal -2.06929008995739e-30 -9.309904229350263e-32 1.0
  outer loop
    vertex 2.5858895278359677 0.9545186779374903 83.0
    vertex 3.0 0.0 83.0
    vertex 3.0000000000000004 0.8999999999999998 83.0
  endloop
endfacet
facet normal -2.06929008995739e-30 -9.309904229350263e-32 1.0
  outer loop
    vertex 3.0000000000000004 0.8999999999999998 83.0
    vertex 3.0 0.0 83.0
    vertex 3.6470476127563027 0.08518543427732973 83.0
  endloop
endfacet
facet normal -2.06929008995739e-30 -9.309904229350263e-32 1.0
  outer loop
    vertex 3.0000000000000004 0.8999999999999998 83.0
    vertex 3.6470476127563027 0.08518543427732973 83.0
    vertex 3.4141104721640336 0.9545186779374907 83.0
  endloop
endfacet
facet normal -2.06929008995739e-30 -9.309904229350263e-32 1.0
  outer loop
    vertex 3.4141104721640336 0.9545186779374907 83.0
    vertex 3.6470476127563027 0.08518543427732973 83.0
    vertex 3.8000000000000007 1.1143593539448982 83.0
  endloop
endfacet
facet normal -2.06929008995739e-30 -9.309904229350263e-32 1.0
  outer loop
    vertex 3.8000000000000007 1.1143593539448982 83.0
    vertex 3.6470476127563027 0.08518543427732973 83.0
    vertex 4.250000000000001 0.3349364905389042 83.0
  endloop
endfacet
facet normal -2.06929008995739e-30 -9.309904229350263e-32 1.0
  outer loop
    vertex 3.8000000000000007 1.1143593539448982 83.0
    vertex 4.250000000000001 0.3349364905389042 83.0
    vertex 4.1313708498984765 1.3686291501015238 83.0
  endloop
endfacet
facet normal -2.06929008995739e-30 -9.309904229350263e-32 1.0
  outer loop
    vertex 4.1313708498984765 1.3686291501015238 83.0
    vertex 4.250000000000001 0.3349364905389042 83.0
    vertex 4.385640646055101 1.7 83.0
  endloop
endfacet
facet normal -2.06929008995739e-30 -9.309904229350263e-32 1.0
  outer loop
    vertex 4.385640646055101 1.7 83.0
    vertex 4.250000000000001 0.3349364905389042 83.0
    vertex 4.767766952966369 0.7322330470336317 83.0
  endloop
endfacet
facet normal -2.06929008995739e-30 -9.309904229350263e-32 1.0
  outer loop
    vertex 4.385640646055101 1.7 83.0
    vertex 4.767766952966369 0.7322330470336317 83.0
    vertex 4.545481322062509 2.085889527835967 83.0
  endloop
endfacet
facet normal -2.06929008995739e-30 -9.309904229350263e-32 1.0
  outer loop
    vertex 4.545481322062509 2.085889527835967 83.0
    vertex 4.767766952966369 0.7322330470336317 83.0
    vertex 4.6 2.4999999999999996 83.0
  endloop
endfacet
facet normal -2.06929008995739e-30 -9.309904229350263e-32 1.0
  outer loop
    vertex 1.0000000000000002 4.999999999999999 83.0
    vertex 1.868629150101524 3.631370849898475 83.0
    vertex 3.0 4.999999999999999 83.0
  endloop
endfacet
facet normal -2.06929008995739e-30 -9.309904229350263e-32 1.0
  outer loop
    vertex 1.868629150101524 3.631370849898475 83.0
    vertex 1.0000000000000002 4.999999999999999 83.0
    vertex 1.614359353944898 3.299999999999998 83.0
  endloop
endfacet
facet normal -2.06929008995739e-30 -9.309904229350263e-32 1.0
  outer loop
    vertex 1.614359353944898 3.299999999999998 83.0
    vertex 1.0000000000000002 4.999999999999999 83.0
    vertex 1.4545186779374908 2.9141104721640323 83.0
  endloop
endfacet
facet normal -2.06929008995739e-30 -9.309904229350263e-32 1.0
  outer loop
    vertex 1.4545186779374908 2.9141104721640323 83.0
    vertex 1.0000000000000002 4.999999999999999 83.0
    vertex 1.4000000000000004 2.499999999999999 83.0
  endloop
endfacet
facet normal -2.06929008995739e-30 -9.309904229350263e-32 1.0
  outer loop
    vertex 3.0 4.999999999999999 83.0
    vertex 1.868629150101524 3.631370849898475 83.0
    vertex 2.1999999999999993 3.8856406460551014 83.0
  endloop
endfacet
facet normal -2.06929008995739e-30 -9.309904229350263e-32 1.0
  outer loop
    vertex 3.0 4.999999999999999 83.0
    vertex 2.1999999999999993 3.8856406460551014 83.0
    vertex 2.585889527835966 4.045481322062509 83.0
  endloop
endfacet
facet normal -2.06929008995739e-30 -9.309904229350263e-32 1.0
  outer loop
    vertex 3.0 4.999999999999999 83.0
    vertex 2.585889527835966 4.045481322062509 83.0
    vertex 3.0 4.1 83.0
  endloop
endfacet
facet normal -2.06929008995739e-30 -9.309904229350263e-32 1.0
  outer loop
    vertex 3.0 4.999999999999999 83.0
    vertex 3.0 4.1 83.0
    vertex 3.4141104721640336 4.045481322062509 83.0
  endloop
endfacet
facet normal -2.06929008995739e-30 -9.309904229350263e-32 1.0
  outer loop
    vertex 3.0 4.999999999999999 83.0
    vertex 3.4141104721640336 4.045481322062509 83.0
    vertex 3.6470476127563023 4.91481456572267 83.0
  endloop
endfacet
facet normal -2.06929008995739e-30 -9.309904229350263e-32 1.0
  outer loop
    vertex 3.6470476127563023 4.91481456572267 83.0
    vertex 3.4141104721640336 4.045481322062509 83.0
    vertex 3.8000000000000003 3.8856406460551014 83.0
  endloop
endfacet
facet normal -2.06929008995739e-30 -9.309904229350263e-32 1.0
  outer loop
    vertex 3.6470476127563023 4.91481456572267 83.0
    vertex 3.8000000000000003 3.8856406460551014 83.0
    vertex 4.25 4.665063509461096 83.0
  endloop
endfacet
facet normal -2.06929008995739e-30 -9.309904229350263e-32 1.0
  outer loop
    vertex 4.25 4.665063509461096 83.0
    vertex 3.8000000000000003 3.8856406460551014 83.0
    vertex 4.1313708498984765 3.631370849898476 83.0
  endloop
endfacet
facet normal -2.06929008995739e-30 -9.309904229350263e-32 1.0
  outer loop
    vertex 4.25 4.665063509461096 83.0
    vertex 4.1313708498984765 3.631370849898476 83.0
    vertex 4.385640646055101 3.2999999999999994 83.0
  endloop
endfacet
facet normal -2.06929008995739e-30 -9.309904229350263e-32 1.0
  outer loop
    vertex 4.25 4.665063509461096 83.0
    vertex 4.385640646055101 3.2999999999999994 83.0
    vertex 4.767766952966369 4.267766952966368 83.0
  endloop
endfacet
facet normal -2.06929008995739e-30 -9.309904229350263e-32 1.0
  outer loop
    vertex 4.767766952966369 4.267766952966368 83.0
    vertex 4.385640646055101 3.2999999999999994 83.0
    vertex 4.545481322062509 2.914110472164033 83.0
  endloop
endfacet
facet normal -2.06929008995739e-30 -9.309904229350263e-32 1.0
  outer loop
    vertex 4.767766952966369 4.267766952966368 83.0
    vertex 4.545481322062509 2.914110472164033 83.0
    vertex 4.6 2.4999999999999996 83.0
  endloop
endfacet
facet normal -2.06929008995739e-30 -9.309904229350263e-32 1.0
  outer loop
    vertex 4.767766952966369 4.267766952966368 83.0
    vertex 4.6 2.4999999999999996 83.0
    vertex 4.767766952966369 0.7322330470336317 83.0
  endloop
endfacet
facet normal -2.06929008995739e-30 -9.309904229350263e-32 1.0
  outer loop
    vertex 4.767766952966369 4.267766952966368 83.0
    vertex 4.767766952966369 0.7322330470336317 83.0
    vertex 5.165063509461096 1.2500000000000004 83.0
  endloop
endfacet
facet normal -2.06929008995739e-30 -9.309904229350263e-32 1.0
  outer loop
    vertex 4.767766952966369 4.267766952966368 83.0
    vertex 5.165063509461096 1.2500000000000004 83.0
    vertex 5.165063509461096 3.7499999999999996 83.0
  endloop
endfacet
facet normal -2.06929008995739e-30 -9.309904229350263e-32 1.0
  outer loop
    vertex 5.165063509461096 3.7499999999999996 83.0
    vertex 5.165063509461096 1.2500000000000004 83.0
    vertex 5.41481456572267 1.8529523872436984 83.0
  endloop
endfacet
facet normal -2.06929008995739e-30 -9.309904229350263e-32 1.0
  outer loop
    vertex 5.165063509461096 3.7499999999999996 83.0
    vertex 5.41481456572267 1.8529523872436984 83.0
    vertex 5.41481456572267 3.147047612756302 83.0
  endloop
endfacet
facet normal -2.06929008995739e-30 -9.309904229350263e-32 1.0
  outer loop
    vertex 5.41481456572267 3.147047612756302 83.0
    vertex 5.41481456572267 1.8529523872436984 83.0
    vertex 5.5 2.4999999999999996 83.0
  endloop
endfacet
facet normal -2.06929008995739e-30 -9.309904229350263e-32 1.0
  outer loop
    vertex 1.0000000000000002 1.9999999999999996 83.0
    vertex 0.0 2.9999999999999996 83.0
    vertex 0.0 1.9999999999999996 83.0
  endloop
endfacet
facet normal -2.06929008995739e-30 -9.309904229350263e-32 1.0
  outer loop
    vertex 0.0 2.9999999999999996 83.0
    vertex 1.0000000000000002 1.9999999999999996 83.0
    vertex 1.0000000000000002 2.9999999999999996 83.0
  endloop
endfacet
facet normal -2.06929008995739e-30 -9.309904229350263e-32 1.0
  outer loop
    vertex 0.0 0.0 83.0
    vertex -0.9999999999999999 4.999999999999999 83.0
    vertex -0.9999999999999999 0.0 83.0
  endloop
endfacet
facet normal -2.06929008995739e-30 -9.309904229350263e-32 1.0
  outer loop
    vertex -0.9999999999999999 4.999999999999999 83.0
    vertex 0.0 0.0 83.0
    vertex 0.0 4.999999999999999 83.0
  endloop
endfacet
facet normal -2.06929008995739e-30 -9.309904229350263e-32 1.0
  outer loop
    vertex 0.0 4.999999999999999 83.0
    vertex 0.0 0.0 83.0
    vertex 0.0 1.9999999999999996 83.0
  endloop
endfacet
facet normal -2.06929008995739e-30 -9.309904229350263e-32 1.0
  outer loop
    vertex 0.0 4.999999999999999 83.0
    vertex 0.0 1.9999999999999996 83.0
    vertex 0.0 2.9999999999999996 83.0
  endloop
endfacet
facet normal -1.0 0.0 0.0
  outer loop
    vertex 1.0000000000000002 4.999999999999999 83.0
    vertex 1.0000000000000002 2.9999999999999996 3.0
    vertex 1.0000000000000002 2.9999999999999996 83.0
  endloop
endfacet
facet normal -1.0 0.0 0.0
  outer loop
    vertex 1.0000000000000002 2.9999999999999996 3.0
    vertex 1.0000000000000002 4.999999999999999 83.0
    vertex 1.0000000000000002 4.999999999999999 3.0
  endloop
endfacet
facet normal -0.0 1.0 -0.0
  outer loop
    vertex 0.0 2.9999999999999996 83.0
    vertex 1.0000000000000002 2.9999999999999996 3.0
    vertex 0.0 2.9999999999999996 3.0
  endloop
endfacet
facet normal -0.0 1.0 -0.0
  outer loop
    vertex 1.0000000000000002 2.9999999999999996 3.0
    vertex 0.0 2.9999999999999996 83.0
    vertex 1.0000000000000002 2.9999999999999996 83.0
  endloop
endfacet
facet normal 1.0 -0.0 0.0
  outer loop
    vertex 0.0 4.999999999999999 3.0
    vertex 0.0 2.9999999999999996 83.0
    vertex 0.0 2.9999999999999996 3.0
  endloop
endfacet
facet normal 1.0 -0.0 0.0
  outer loop
    vertex 0.0 2.9999999999999996 83.0
    vertex 0.0 4.999999999999999 3.0
    vertex 0.0 4.999999999999999 83.0
  endloop
endfacet
facet normal 1.0 -0.0 0.0
  outer loop
    vertex 0.0 1.9999999999999996 3.0
    vertex 0.0 0.0 83.0
    vertex 0.0 0.0 3.0
  endloop
endfacet
facet normal 1.0 -0.0 0.0
  outer loop
    vertex 0.0 0.0 83.0
    vertex 0.0 1.9999999999999996 3.0
    vertex 0.0 1.9999999999999996 83.0
  endloop
endfacet
facet normal 0.0 -1.0 0.0
  outer loop
    vertex 1.0000000000000002 1.9999999999999996 83.0
    vertex 0.0 1.9999999999999996 3.0
    vertex 1.0000000000000002 1.9999999999999996 3.0
  endloop
endfacet
facet normal 0.0 -1.0 0.0
  outer loop
    vertex 0.0 1.9999999999999996 3.0
    vertex 1.0000000000000002 1.9999999999999996 83.0
    vertex 0.0 1.9999999999999996 83.0
  endloop
endfacet
facet normal -1.0 0.0 0.0
  outer loop
    vertex 1.0000000000000002 1.9999999999999996 83.0
    vertex 1.0000000000000002 0.0 3.0
    vertex 1.0000000000000002 0.0 83.0
  endloop
endfacet
facet normal -1.0 0.0 0.0
  outer loop
    vertex 1.0000000000000002 0.0 3.0
    vertex 1.0000000000000002 1.9999999999999996 83.0
    vertex 1.0000000000000002 1.9999999999999996 3.0
  endloop
endfacet
facet normal 1.0 0.0 0.0
  outer loop
    vertex 3.0 4.999999999999999 -6.3
    vertex 3.0 0.0 0.0
    vertex 3.0 0.0 -6.3
  endloop
endfacet
facet normal 1.0 0.0 0.0
  outer loop
    vertex 3.0 0.0 0.0
    vertex 3.0 4.999999999999999 -6.3
    vertex 3.0 4.999999999999999 0.0
  endloop
endfacet
facet normal 0.0 0.0 -1.0
  outer loop
    vertex 12.000000000000004 4.999999999999999 -9.3
    vertex -0.9999999999999999 0.0 -9.3
    vertex -0.9999999999999999 4.999999999999999 -9.3
  endloop
endfacet
facet normal 0.0 0.0 -1.0
  outer loop
    vertex -0.9999999999999999 0.0 -9.3
    vertex 12.000000000000004 4.999999999999999 -9.3
    vertex 12.000000000000004 0.0 -9.3
  endloop
endfacet
facet normal 1.0 0.0 0.0
  outer loop
    vertex 12.000000000000004 4.999999999999999 -9.3
    vertex 12.000000000000004 0.0 -6.3
    vertex 12.000000000000004 0.0 -9.3
  endloop
endfacet
facet normal 1.0 0.0 0.0
  outer loop
    vertex 12.000000000000004 0.0 -6.3
    vertex 12.000000000000004 4.999999999999999 -9.3
    vertex 12.000000000000004 4.999999999999999 -6.3
  endloop
endfacet
facet normal -0.0 0.0 1.0
  outer loop
    vertex 12.000000000000004 0.0 -6.3
    vertex 3.0 4.999999999999999 -6.3
    vertex 3.0 0.0 -6.3
  endloop
endfacet
facet normal -0.0 0.0 1.0
  outer loop
    vertex 3.0 4.999999999999999 -6.3
    vertex 12.000000000000004 0.0 -6.3
    vertex 12.000000000000004 4.999999999999999 -6.3
  endloop
endfacet
facet normal -0.6924489924537016 0.5313347997086213 0.4880550414332924
  outer loop
    vertex 8.587121223120505 1.2950000000000466 3.0
    vertex 7.207106781186547 1.7928932188134528 0.5000000000000001
    vertex 8.204127342659541 0.7958726573404714 3.0
  endloop
endfacet
facet normal -0.6924489924537016 0.5313347997086213 0.4880550414332924
  outer loop
    vertex 7.207106781186547 1.7928932188134528 0.5000000000000001
    vertex 8.587121223120505 1.2950000000000466 3.0
    vertex 7.366025403784438 2.0 0.5000000000000001
  endloop
endfacet
facet normal -0.8063739306892531 0.3340110184354897 0.4880550414332905
  outer loop
    vertex 8.827881241356579 1.876246101302975 3.0
    vertex 7.366025403784438 2.0 0.5000000000000001
    vertex 8.587121223120505 1.2950000000000466 3.0
  endloop
endfacet
facet normal -0.8063739306892531 0.3340110184354897 0.4880550414332905
  outer loop
    vertex 7.366025403784438 2.0 0.5000000000000001
    vertex 8.827881241356579 1.876246101302975 3.0
    vertex 7.465925826289067 2.2411809548974793 0.5000000000000001
  endloop
endfacet
facet normal -0.8653458181441843 -0.1139249382354903 0.48805504143325107
  outer loop
    vertex 8.909999999999798 2.500000000000013 2.9999999999999996
    vertex 7.465925826289067 2.7588190451025207 0.5000000000000001
    vertex 7.499999999999999 2.4999999999999996 0.5000000000000001
  endloop
endfacet
facet normal -0.8653458181441843 -0.1139249382354903 0.48805504143325107
  outer loop
    vertex 7.465925826289067 2.7588190451025207 0.5000000000000001
    vertex 8.909999999999798 2.500000000000013 2.9999999999999996
    vertex 8.82788124135644 3.1237538986971782 2.9999999999999996
  endloop
endfacet
facet normal -0.8063739306892457 -0.3340110184355421 0.48805504143326667
  outer loop
    vertex 8.82788124135644 3.1237538986971782 2.9999999999999996
    vertex 7.3660254037844375 3.0 0.5000000000000001
    vertex 7.465925826289067 2.7588190451025207 0.5000000000000001
  endloop
endfacet
facet normal -0.8063739306892457 -0.3340110184355421 0.48805504143326667
  outer loop
    vertex 7.3660254037844375 3.0 0.5000000000000001
    vertex 8.82788124135644 3.1237538986971782 2.9999999999999996
    vertex 8.587121223120281 3.7050000000002044 2.9999999999999996
  endloop
endfacet
facet normal -0.8653458181441944 0.11392493823534842 0.488055041433266
  outer loop
    vertex 8.909999999999798 2.500000000000013 2.9999999999999996
    vertex 7.465925826289067 2.2411809548974793 0.5000000000000001
    vertex 8.827881241356579 1.876246101302975 3.0
  endloop
endfacet
facet normal -0.8653458181441944 0.11392493823534842 0.488055041433266
  outer loop
    vertex 7.465925826289067 2.2411809548974793 0.5000000000000001
    vertex 8.909999999999798 2.500000000000013 2.9999999999999996
    vertex 7.499999999999999 2.4999999999999996 0.5000000000000001
  endloop
endfacet
facet normal 4.713149686912715e-17 2.0555506265875154e-17 1.0
  outer loop
    vertex 3.0 0.0 3.0
    vertex 4.172118758643298 1.876246101302975 3.0
    vertex 3.0 4.999999999999999 3.0
  endloop
endfacet
facet normal 4.713149686912715e-17 2.0555506265875154e-17 1.0
  outer loop
    vertex 4.172118758643298 1.876246101302975 3.0
    vertex 3.0 0.0 3.0
    vertex 4.412878776879465 1.2950000000000466 3.0
  endloop
endfacet
facet normal 4.713149686912715e-17 2.0555506265875154e-17 1.0
  outer loop
    vertex 4.412878776879465 1.2950000000000466 3.0
    vertex 3.0 0.0 3.0
    vertex 4.795872657340382 0.7958726573404714 3.0
  endloop
endfacet
facet normal 4.713149686912715e-17 2.0555506265875154e-17 1.0
  outer loop
    vertex 4.795872657340382 0.7958726573404714 3.0
    vertex 3.0 0.0 3.0
    vertex 5.294999999999979 0.4128787768795417 3.0
  endloop
endfacet
facet normal 4.713149686912715e-17 2.0555506265875154e-17 1.0
  outer loop
    vertex 5.294999999999979 0.4128787768795417 3.0
    vertex 3.0 0.0 3.0
    vertex 5.876246101302899 0.1721187586433901 3.0
  endloop
endfacet
facet normal 4.713149686912715e-17 2.0555506265875154e-17 1.0
  outer loop
    vertex 5.876246101302899 0.1721187586433901 3.0
    vertex 3.0 0.0 3.0
    vertex 6.499999999999934 0.09000000000003644 3.0
  endloop
endfacet
facet normal 4.713149686912715e-17 2.0555506265875154e-17 1.0
  outer loop
    vertex 6.499999999999934 0.09000000000003644 3.0
    vertex 3.0 0.0 3.0
    vertex 12.0 0.0 3.0
  endloop
endfacet
facet normal 4.713149686912715e-17 2.0555506265875154e-17 1.0
  outer loop
    vertex 3.0 4.999999999999999 3.0
    vertex 4.172118758643298 1.876246101302975 3.0
    vertex 4.089999999999959 2.5000000000000404 3.0
  endloop
endfacet
facet normal 4.713149686912715e-17 2.0555506265875154e-17 1.0
  outer loop
    vertex 4.412878776879465 1.2950000000000466 3.0
    vertex 4.795872657340382 0.7958726573404714 3.0
    vertex 4.554538902308815 1.1103849302206548 3.0
  endloop
endfacet
facet normal 4.713149686912715e-17 2.0555506265875154e-17 1.0
  outer loop
    vertex 6.499999999999934 0.09000000000003644 3.0
    vertex 12.0 0.0 3.0
    vertex 7.123753898697008 0.1721187586433901 3.0
  endloop
endfacet
facet normal 4.713149686912715e-17 2.0555506265875154e-17 1.0
  outer loop
    vertex 7.123753898697008 0.1721187586433901 3.0
    vertex 12.0 0.0 3.0
    vertex 7.70499999999992 0.4128787768795417 3.0
  endloop
endfacet
facet normal 4.713149686912715e-17 2.0555506265875154e-17 1.0
  outer loop
    vertex 7.70499999999992 0.4128787768795417 3.0
    vertex 12.0 0.0 3.0
    vertex 8.204127342659541 0.7958726573404714 3.0
  endloop
endfacet
facet normal 4.713149686912715e-17 2.0555506265875154e-17 1.0
  outer loop
    vertex 8.204127342659541 0.7958726573404714 3.0
    vertex 12.0 0.0 3.0
    vertex 8.587121223120505 1.2950000000000466 3.0
  endloop
endfacet
facet normal 4.713149686912715e-17 2.0555506265875154e-17 1.0
  outer loop
    vertex 8.587121223120505 1.2950000000000466 3.0
    vertex 12.0 0.0 3.0
    vertex 8.827881241356579 1.876246101302975 3.0
  endloop
endfacet
facet normal 4.713149686912715e-17 2.0555506265875154e-17 1.0
  outer loop
    vertex 8.827881241356579 1.876246101302975 3.0
    vertex 12.0 0.0 3.0
    vertex 8.909999999999798 2.500000000000013 2.9999999999999996
  endloop
endfacet
facet normal 4.713149686912715e-17 2.0555506265875154e-17 1.0
  outer loop
    vertex 3.0 4.999999999999999 3.0
    vertex 6.499999999999934 4.910000000000052 3.0
    vertex 12.0 4.999999999999999 3.0
  endloop
endfacet
facet normal 4.713149686912715e-17 2.0555506265875154e-17 1.0
  outer loop
    vertex 6.499999999999934 4.910000000000052 3.0
    vertex 3.0 4.999999999999999 3.0
    vertex 5.876246101302887 4.827881241356701 3.0
  endloop
endfacet
facet normal 4.713149686912715e-17 2.0555506265875154e-17 1.0
  outer loop
    vertex 5.876246101302887 4.827881241356701 3.0
    vertex 3.0 4.999999999999999 3.0
    vertex 5.294999999999969 4.587121223120549 3.0
  endloop
endfacet
facet normal 4.713149686912715e-17 2.0555506265875154e-17 1.0
  outer loop
    vertex 5.294999999999969 4.587121223120549 3.0
    vertex 3.0 4.999999999999999 3.0
    vertex 4.795872657340382 4.20412734265961 3.0
  endloop
endfacet
facet normal 4.713149686912715e-17 2.0555506265875154e-17 1.0
  outer loop
    vertex 4.795872657340382 4.20412734265961 3.0
    vertex 3.0 4.999999999999999 3.0
    vertex 4.412878776879465 3.7050000000000485 3.0
  endloop
endfacet
facet normal 4.713149686912715e-17 2.0555506265875154e-17 1.0
  outer loop
    vertex 4.412878776879465 3.7050000000000485 3.0
    vertex 3.0 4.999999999999999 3.0
    vertex 4.172118758643298 3.123753898697118 3.0
  endloop
endfacet
facet normal 4.713149686912715e-17 2.0555506265875154e-17 1.0
  outer loop
    vertex 4.172118758643298 3.123753898697118 3.0
    vertex 3.0 4.999999999999999 3.0
    vertex 4.089999999999959 2.5000000000000404 3.0
  endloop
endfacet
facet normal 4.713149686912715e-17 2.0555506265875154e-17 1.0
  outer loop
    vertex 12.0 4.999999999999999 3.0
    vertex 6.499999999999934 4.910000000000052 3.0
    vertex 7.123753898697008 4.827881241356701 3.0
  endloop
endfacet
facet normal 4.713149686912715e-17 2.0555506265875154e-17 1.0
  outer loop
    vertex 12.0 4.999999999999999 3.0
    vertex 7.123753898697008 4.827881241356701 3.0
    vertex 7.70499999999992 4.587121223120549 3.0
  endloop
endfacet
facet normal 4.713149686912715e-17 2.0555506265875154e-17 1.0
  outer loop
    vertex 12.0 4.999999999999999 3.0
    vertex 7.70499999999992 4.587121223120549 3.0
    vertex 8.204127342659541 4.20412734265961 3.0
  endloop
endfacet
facet normal 4.713149686912715e-17 2.0555506265875154e-17 1.0
  outer loop
    vertex 12.0 4.999999999999999 3.0
    vertex 8.204127342659541 4.20412734265961 3.0
    vertex 8.445461097690863 3.8896150697796408 2.9999999999999996
  endloop
endfacet
facet normal 4.713149686912715e-17 2.0555506265875154e-17 1.0
  outer loop
    vertex 12.0 4.999999999999999 3.0
    vertex 8.445461097690863 3.8896150697796408 2.9999999999999996
    vertex 8.587121223120281 3.7050000000002044 2.9999999999999996
  endloop
endfacet
facet normal 4.713149686912715e-17 2.0555506265875154e-17 1.0
  outer loop
    vertex 12.0 4.999999999999999 3.0
    vertex 8.587121223120281 3.7050000000002044 2.9999999999999996
    vertex 8.82788124135644 3.1237538986971782 2.9999999999999996
  endloop
endfacet
facet normal 4.713149686912715e-17 2.0555506265875154e-17 1.0
  outer loop
    vertex 12.0 4.999999999999999 3.0
    vertex 8.82788124135644 3.1237538986971782 2.9999999999999996
    vertex 8.909999999999798 2.500000000000013 2.9999999999999996
  endloop
endfacet
facet normal 4.713149686912715e-17 2.0555506265875154e-17 1.0
  outer loop
    vertex 12.0 4.999999999999999 3.0
    vertex 8.909999999999798 2.500000000000013 2.9999999999999996
    vertex 12.0 0.0 3.0
  endloop
endfacet
facet normal -0.11392493823549737 0.8653458181441611 0.48805504143329037
  outer loop
    vertex 6.499999999999934 0.09000000000003644 3.0
    vertex 6.758819045102521 1.534074173710932 0.5000000000000001
    vertex 6.499999999999999 1.5 0.5000000000000001
  endloop
endfacet
facet normal -0.11392493823549737 0.8653458181441611 0.48805504143329037
  outer loop
    vertex 6.758819045102521 1.534074173710932 0.5000000000000001
    vertex 6.499999999999934 0.09000000000003644 3.0
    vertex 7.123753898697008 0.1721187586433901 3.0
  endloop
endfacet
facet normal -0.33401101843557574 0.8063739306892201 0.4880550414332857
  outer loop
    vertex 7.123753898697008 0.1721187586433901 3.0
    vertex 7.0 1.6339745962155618 0.5000000000000001
    vertex 6.758819045102521 1.534074173710932 0.5000000000000001
  endloop
endfacet
facet normal -0.33401101843557574 0.8063739306892201 0.4880550414332857
  outer loop
    vertex 7.0 1.6339745962155618 0.5000000000000001
    vertex 7.123753898697008 0.1721187586433901 3.0
    vertex 7.70499999999992 0.4128787768795417 3.0
  endloop
endfacet
facet normal -0.5313347997085723 0.6924489924537448 0.4880550414332846
  outer loop
    vertex 7.70499999999992 0.4128787768795417 3.0
    vertex 7.207106781186547 1.7928932188134528 0.5000000000000001
    vertex 7.0 1.6339745962155618 0.5000000000000001
  endloop
endfacet
facet normal -0.5313347997085723 0.6924489924537448 0.4880550414332846
  outer loop
    vertex 7.207106781186547 1.7928932188134528 0.5000000000000001
    vertex 7.70499999999992 0.4128787768795417 3.0
    vertex 8.204127342659541 0.7958726573404714 3.0
  endloop
endfacet
facet normal -0.692448992453674 -0.5313347997086658 0.48805504143328327
  outer loop
    vertex 8.587121223120281 3.7050000000002044 2.9999999999999996
    vertex 7.3072452687515135 3.076603763393938 0.5000000000000001
    vertex 7.3660254037844375 3.0 0.5000000000000001
  endloop
endfacet
facet normal -0.692448992453674 -0.5313347997086658 0.48805504143328327
  outer loop
    vertex 7.3072452687515135 3.076603763393938 0.5000000000000001
    vertex 8.587121223120281 3.7050000000002044 2.9999999999999996
    vertex 8.445461097690863 3.8896150697796408 2.9999999999999996
  endloop
endfacet
facet normal -0.5313347997085743 -0.6924489924537303 0.488055041433303
  outer loop
    vertex 8.204127342659541 4.20412734265961 3.0
    vertex 6.999999999999998 3.366025403784438 0.5000000000000001
    vertex 7.207106781186546 3.207106781186547 0.5000000000000001
  endloop
endfacet
facet normal -0.5313347997085743 -0.6924489924537303 0.488055041433303
  outer loop
    vertex 6.999999999999998 3.366025403784438 0.5000000000000001
    vertex 8.204127342659541 4.20412734265961 3.0
    vertex 7.70499999999992 4.587121223120549 3.0
  endloop
endfacet
facet normal -0.6924489924538055 -0.531334799708489 0.4880550414332892
  outer loop
    vertex 8.445461097690863 3.8896150697796408 2.9999999999999996
    vertex 7.207106781186546 3.207106781186547 0.5000000000000001
    vertex 7.3072452687515135 3.076603763393938 0.5000000000000001
  endloop
endfacet
facet normal -0.6924489924538055 -0.531334799708489 0.4880550414332892
  outer loop
    vertex 7.207106781186546 3.207106781186547 0.5000000000000001
    vertex 8.445461097690863 3.8896150697796408 2.9999999999999996
    vertex 8.204127342659541 4.20412734265961 3.0
  endloop
endfacet
facet normal -0.11392493823549134 -0.8653458181441481 0.4880550414333144
  outer loop
    vertex 7.123753898697008 4.827881241356701 3.0
    vertex 6.499999999999999 3.499999999999999 0.5000000000000001
    vertex 6.758819045102519 3.4659258262890673 0.5000000000000001
  endloop
endfacet
facet normal -0.11392493823549134 -0.8653458181441481 0.4880550414333144
  outer loop
    vertex 6.499999999999999 3.499999999999999 0.5000000000000001
    vertex 7.123753898697008 4.827881241356701 3.0
    vertex 6.499999999999934 4.910000000000052 3.0
  endloop
endfacet
facet normal -0.3340110184355712 -0.8063739306892085 0.48805504143330847
  outer loop
    vertex 7.70499999999992 4.587121223120549 3.0
    vertex 6.758819045102519 3.4659258262890673 0.5000000000000001
    vertex 6.999999999999998 3.366025403784438 0.5000000000000001
  endloop
endfacet
facet normal -0.3340110184355712 -0.8063739306892085 0.48805504143330847
  outer loop
    vertex 6.758819045102519 3.4659258262890673 0.5000000000000001
    vertex 7.70499999999992 4.587121223120549 3.0
    vertex 7.123753898697008 4.827881241356701 3.0
  endloop
endfacet
facet normal 0.11392493823549499 -0.8653458181441455 0.48805504143331846
  outer loop
    vertex 6.499999999999934 4.910000000000052 3.0
    vertex 6.241180954897478 3.4659258262890673 0.5000000000000001
    vertex 6.499999999999999 3.499999999999999 0.5000000000000001
  endloop
endfacet
facet normal 0.11392493823549499 -0.8653458181441455 0.48805504143331846
  outer loop
    vertex 6.241180954897478 3.4659258262890673 0.5000000000000001
    vertex 6.499999999999934 4.910000000000052 3.0
    vertex 5.876246101302887 4.827881241356701 3.0
  endloop
endfacet
facet normal 0.33401101843556763 -0.8063739306892035 0.4880550414333193
  outer loop
    vertex 5.876246101302887 4.827881241356701 3.0
    vertex 6.0 3.366025403784438 0.5000000000000001
    vertex 6.241180954897478 3.4659258262890673 0.5000000000000001
  endloop
endfacet
facet normal 0.33401101843556763 -0.8063739306892035 0.4880550414333193
  outer loop
    vertex 6.0 3.366025403784438 0.5000000000000001
    vertex 5.876246101302887 4.827881241356701 3.0
    vertex 5.294999999999969 4.587121223120549 3.0
  endloop
endfacet
facet normal 0.5313347997085889 -0.6924489924537087 0.4880550414333177
  outer loop
    vertex 5.294999999999969 4.587121223120549 3.0
    vertex 5.792893218813452 3.207106781186547 0.5000000000000001
    vertex 6.0 3.366025403784438 0.5000000000000001
  endloop
endfacet
facet normal 0.5313347997085889 -0.6924489924537087 0.4880550414333177
  outer loop
    vertex 5.792893218813452 3.207106781186547 0.5000000000000001
    vertex 5.294999999999969 4.587121223120549 3.0
    vertex 4.795872657340382 4.20412734265961 3.0
  endloop
endfacet
facet normal 0.865345818144149 -0.11392493823547648 0.4880550414333165
  outer loop
    vertex 5.534074173710931 2.7588190451025203 0.5000000000000001
    vertex 4.089999999999959 2.5000000000000404 3.0
    vertex 5.5 2.4999999999999996 0.5000000000000001
  endloop
endfacet
facet normal 0.865345818144149 -0.11392493823547648 0.4880550414333165
  outer loop
    vertex 4.089999999999959 2.5000000000000404 3.0
    vertex 5.534074173710931 2.7588190451025203 0.5000000000000001
    vertex 4.172118758643298 3.123753898697118 3.0
  endloop
endfacet
facet normal 0.8653458181441505 0.11392493823547871 0.4880550414333134
  outer loop
    vertex 5.534074173710931 2.2411809548974784 0.5000000000000001
    vertex 4.089999999999959 2.5000000000000404 3.0
    vertex 4.172118758643298 1.876246101302975 3.0
  endloop
endfacet
facet normal 0.8653458181441505 0.11392493823547871 0.4880550414333134
  outer loop
    vertex 4.089999999999959 2.5000000000000404 3.0
    vertex 5.534074173710931 2.2411809548974784 0.5000000000000001
    vertex 5.5 2.4999999999999996 0.5000000000000001
  endloop
endfacet
facet normal 0.6924489924537175 0.5313347997085908 0.48805504143330314
  outer loop
    vertex 5.692754731248486 1.9233962366060608 0.5000000000000001
    vertex 4.412878776879465 1.2950000000000466 3.0
    vertex 4.554538902308815 1.1103849302206548 3.0
  endloop
endfacet
facet normal 0.6924489924537175 0.5313347997085908 0.48805504143330314
  outer loop
    vertex 4.412878776879465 1.2950000000000466 3.0
    vertex 5.692754731248486 1.9233962366060608 0.5000000000000001
    vertex 5.633974596215562 1.9999999999999996 0.5000000000000001
  endloop
endfacet
facet normal 0.8063739306892039 0.3340110184355811 0.48805504143330897
  outer loop
    vertex 5.633974596215562 1.9999999999999996 0.5000000000000001
    vertex 4.172118758643298 1.876246101302975 3.0
    vertex 4.412878776879465 1.2950000000000466 3.0
  endloop
endfacet
facet normal 0.8063739306892039 0.3340110184355811 0.48805504143330897
  outer loop
    vertex 4.172118758643298 1.876246101302975 3.0
    vertex 5.633974596215562 1.9999999999999996 0.5000000000000001
    vertex 5.534074173710931 2.2411809548974784 0.5000000000000001
  endloop
endfacet
facet normal 0.6924489924537102 -0.5313347997085868 0.4880550414333179
  outer loop
    vertex 5.792893218813452 3.207106781186547 0.5000000000000001
    vertex 4.412878776879465 3.7050000000000485 3.0
    vertex 5.633974596215561 2.9999999999999996 0.5000000000000001
  endloop
endfacet
facet normal 0.6924489924537102 -0.5313347997085868 0.4880550414333179
  outer loop
    vertex 4.412878776879465 3.7050000000000485 3.0
    vertex 5.792893218813452 3.207106781186547 0.5000000000000001
    vertex 4.795872657340382 4.20412734265961 3.0
  endloop
endfacet
facet normal 0.8063739306891998 -0.3340110184355774 0.4880550414333186
  outer loop
    vertex 5.633974596215561 2.9999999999999996 0.5000000000000001
    vertex 4.172118758643298 3.123753898697118 3.0
    vertex 5.534074173710931 2.7588190451025203 0.5000000000000001
  endloop
endfacet
facet normal 0.8063739306891998 -0.3340110184355774 0.4880550414333186
  outer loop
    vertex 4.172118758643298 3.123753898697118 3.0
    vertex 5.633974596215561 2.9999999999999996 0.5000000000000001
    vertex 4.412878776879465 3.7050000000000485 3.0
  endloop
endfacet
facet normal 0.6924489924537259 0.5313347997085798 0.4880550414333031
  outer loop
    vertex 5.792893218813452 1.7928932188134525 0.5000000000000001
    vertex 4.554538902308815 1.1103849302206548 3.0
    vertex 4.795872657340382 0.7958726573404714 3.0
  endloop
endfacet
facet normal 0.6924489924537259 0.5313347997085798 0.4880550414333031
  outer loop
    vertex 4.554538902308815 1.1103849302206548 3.0
    vertex 5.792893218813452 1.7928932188134525 0.5000000000000001
    vertex 5.692754731248486 1.9233962366060608 0.5000000000000001
  endloop
endfacet
facet normal 0.531334799708583 0.6924489924537266 0.48805504143329875
  outer loop
    vertex 4.795872657340382 0.7958726573404714 3.0
    vertex 6.0 1.6339745962155612 0.5000000000000001
    vertex 5.792893218813452 1.7928932188134525 0.5000000000000001
  endloop
endfacet
facet normal 0.531334799708583 0.6924489924537266 0.48805504143329875
  outer loop
    vertex 6.0 1.6339745962155612 0.5000000000000001
    vertex 4.795872657340382 0.7958726573404714 3.0
    vertex 5.294999999999979 0.4128787768795417 3.0
  endloop
endfacet
facet normal 0.33401101843557063 0.8063739306892165 0.48805504143329564
  outer loop
    vertex 5.294999999999979 0.4128787768795417 3.0
    vertex 6.241180954897479 1.5340741737109316 0.5000000000000001
    vertex 6.0 1.6339745962155612 0.5000000000000001
  endloop
endfacet
facet normal 0.33401101843557063 0.8063739306892165 0.48805504143329564
  outer loop
    vertex 6.241180954897479 1.5340741737109316 0.5000000000000001
    vertex 5.294999999999979 0.4128787768795417 3.0
    vertex 5.876246101302899 0.1721187586433901 3.0
  endloop
endfacet
facet normal 0.11392493823550248 0.8653458181441581 0.48805504143329426
  outer loop
    vertex 5.876246101302899 0.1721187586433901 3.0
    vertex 6.499999999999999 1.5 0.5000000000000001
    vertex 6.241180954897479 1.5340741737109316 0.5000000000000001
  endloop
endfacet
facet normal 0.11392493823550248 0.8653458181441581 0.48805504143329426
  outer loop
    vertex 6.499999999999999 1.5 0.5000000000000001
    vertex 5.876246101302899 0.1721187586433901 3.0
    vertex 6.499999999999934 0.09000000000003644 3.0
  endloop
endfacet
facet normal -0.7933533402912321 -0.6087614290087249 5.160300721416547e-32
  outer loop
    vertex 7.3072452687515135 3.076603763393938 0.5000000000000001
    vertex 7.3660254037844375 3.0 7.049916206369744e-16
    vertex 7.3660254037844375 3.0 0.5000000000000001
  endloop
endfacet
facet normal -0.7933533402912321 -0.6087614290087249 5.160300721416547e-32
  outer loop
    vertex 7.3660254037844375 3.0 7.049916206369744e-16
    vertex 7.3072452687515135 3.076603763393938 0.5000000000000001
    vertex 7.3072452687515135 3.076603763393938 7.049916206369744e-16
  endloop
endfacet
facet normal -0.7933533402912355 -0.6087614290087203 5.160300721416617e-32
  outer loop
    vertex 7.207106781186546 3.207106781186547 0.5000000000000001
    vertex 7.3072452687515135 3.076603763393938 7.049916206369744e-16
    vertex 7.3072452687515135 3.076603763393938 0.5000000000000001
  endloop
endfacet
facet normal -0.7933533402912355 -0.6087614290087203 5.160300721416617e-32
  outer loop
    vertex 7.3072452687515135 3.076603763393938 7.049916206369744e-16
    vertex 7.207106781186546 3.207106781186547 0.5000000000000001
    vertex 7.207106781186546 3.207106781186547 7.049916206369744e-16
  endloop
endfacet
facet normal -0.6087614290087213 -0.7933533402912347 1.7591844002273199e-32
  outer loop
    vertex 7.207106781186546 3.207106781186547 0.5000000000000001
    vertex 6.999999999999998 3.366025403784438 7.049916206369744e-16
    vertex 7.207106781186546 3.207106781186547 7.049916206369744e-16
  endloop
endfacet
facet normal -0.6087614290087213 -0.7933533402912347 1.7591844002273199e-32
  outer loop
    vertex 6.999999999999998 3.366025403784438 7.049916206369744e-16
    vertex 7.207106781186546 3.207106781186547 0.5000000000000001
    vertex 6.999999999999998 3.366025403784438 0.5000000000000001
  endloop
endfacet
facet normal -0.38268343236508895 -0.9238795325112871 -1.7618174306478193e-32
  outer loop
    vertex 6.999999999999998 3.366025403784438 0.5000000000000001
    vertex 6.758819045102519 3.4659258262890673 7.049916206369744e-16
    vertex 6.999999999999998 3.366025403784438 7.049916206369744e-16
  endloop
endfacet
facet normal -0.38268343236508895 -0.9238795325112871 -1.7618174306478193e-32
  outer loop
    vertex 6.758819045102519 3.4659258262890673 7.049916206369744e-16
    vertex 6.999999999999998 3.366025403784438 0.5000000000000001
    vertex 6.758819045102519 3.4659258262890673 0.5000000000000001
  endloop
endfacet
facet normal -0.13052619222005216 -0.9914448613738104 -5.162754315165237e-32
  outer loop
    vertex 6.758819045102519 3.4659258262890673 0.5000000000000001
    vertex 6.499999999999999 3.499999999999999 7.049916206369744e-16
    vertex 6.758819045102519 3.4659258262890673 7.049916206369744e-16
  endloop
endfacet
facet normal -0.13052619222005216 -0.9914448613738104 -5.162754315165237e-32
  outer loop
    vertex 6.499999999999999 3.499999999999999 7.049916206369744e-16
    vertex 6.758819045102519 3.4659258262890673 0.5000000000000001
    vertex 6.499999999999999 3.499999999999999 0.5000000000000001
  endloop
endfacet
facet normal 0.1305261922200518 -0.9914448613738104 -8.211858024959073e-32
  outer loop
    vertex 6.499999999999999 3.499999999999999 0.5000000000000001
    vertex 6.241180954897478 3.4659258262890673 7.049916206369744e-16
    vertex 6.499999999999999 3.499999999999999 7.049916206369744e-16
  endloop
endfacet
facet normal 0.1305261922200518 -0.9914448613738104 -8.211858024959073e-32
  outer loop
    vertex 6.241180954897478 3.4659258262890673 7.049916206369744e-16
    vertex 6.499999999999999 3.499999999999999 0.5000000000000001
    vertex 6.241180954897478 3.4659258262890673 0.5000000000000001
  endloop
endfacet
facet normal 0.38268343236508895 -0.9238795325112871 -1.0701337181088966e-31
  outer loop
    vertex 6.241180954897478 3.4659258262890673 0.5000000000000001
    vertex 6.0 3.366025403784438 7.049916206369744e-16
    vertex 6.241180954897478 3.4659258262890673 7.049916206369744e-16
  endloop
endfacet
facet normal 0.38268343236508895 -0.9238795325112871 -1.0701337181088966e-31
  outer loop
    vertex 6.0 3.366025403784438 7.049916206369744e-16
    vertex 6.241180954897478 3.4659258262890673 0.5000000000000001
    vertex 6.0 3.366025403784438 0.5000000000000001
  endloop
endfacet
facet normal 0.6087614290087213 -0.7933533402912347 -1.2461537893123524e-31
  outer loop
    vertex 6.0 3.366025403784438 0.5000000000000001
    vertex 5.792893218813452 3.207106781186547 7.049916206369744e-16
    vertex 6.0 3.366025403784438 7.049916206369744e-16
  endloop
endfacet
facet normal 0.6087614290087213 -0.7933533402912347 -1.2461537893123524e-31
  outer loop
    vertex 5.792893218813452 3.207106781186547 7.049916206369744e-16
    vertex 6.0 3.366025403784438 0.5000000000000001
    vertex 5.792893218813452 3.207106781186547 0.5000000000000001
  endloop
endfacet
facet normal 0.7933533402912347 -0.6087614290087213 -1.3372505391406764e-31
  outer loop
    vertex 5.792893218813452 3.207106781186547 7.049916206369744e-16
    vertex 5.633974596215561 2.9999999999999996 0.5000000000000001
    vertex 5.633974596215561 2.9999999999999996 7.049916206369744e-16
  endloop
endfacet
facet normal 0.7933533402912347 -0.6087614290087213 -1.3372505391406764e-31
  outer loop
    vertex 5.633974596215561 2.9999999999999996 0.5000000000000001
    vertex 5.792893218813452 3.207106781186547 7.049916206369744e-16
    vertex 5.792893218813452 3.207106781186547 0.5000000000000001
  endloop
endfacet
facet normal 0.9238795325112871 -0.38268343236508895 -1.3372158746375682e-31
  outer loop
    vertex 5.633974596215561 2.9999999999999996 7.049916206369744e-16
    vertex 5.534074173710931 2.7588190451025203 0.5000000000000001
    vertex 5.534074173710931 2.7588190451025203 7.049916206369744e-16
  endloop
endfacet
facet normal 0.9238795325112871 -0.38268343236508895 -1.3372158746375682e-31
  outer loop
    vertex 5.534074173710931 2.7588190451025203 0.5000000000000001
    vertex 5.633974596215561 2.9999999999999996 7.049916206369744e-16
    vertex 5.633974596215561 2.9999999999999996 0.5000000000000001
  endloop
endfacet
facet normal 0.9914448613738104 -0.1305261922200518 -1.2460521581316284e-31
  outer loop
    vertex 5.534074173710931 2.7588190451025203 7.049916206369744e-16
    vertex 5.5 2.4999999999999996 0.5000000000000001
    vertex 5.5 2.4999999999999996 7.049916206369744e-16
  endloop
endfacet
facet normal 0.9914448613738104 -0.1305261922200518 -1.2460521581316284e-31
  outer loop
    vertex 5.5 2.4999999999999996 0.5000000000000001
    vertex 5.534074173710931 2.7588190451025203 7.049916206369744e-16
    vertex 5.534074173710931 2.7588190451025203 0.5000000000000001
  endloop
endfacet
facet normal 0.9914448613738105 0.13052619222005143 -1.0699720462475712e-31
  outer loop
    vertex 5.5 2.4999999999999996 7.049916206369744e-16
    vertex 5.534074173710931 2.2411809548974784 0.5000000000000001
    vertex 5.534074173710931 2.2411809548974784 7.049916206369744e-16
  endloop
endfacet
facet normal 0.9914448613738105 0.13052619222005143 -1.0699720462475712e-31
  outer loop
    vertex 5.534074173710931 2.2411809548974784 0.5000000000000001
    vertex 5.5 2.4999999999999996 7.049916206369744e-16
    vertex 5.5 2.4999999999999996 0.5000000000000001
  endloop
endfacet
facet normal 0.9238795325112859 0.3826834323650917 -8.2097510762415e-32
  outer loop
    vertex 5.534074173710931 2.2411809548974784 7.049916206369744e-16
    vertex 5.633974596215562 1.9999999999999996 0.5000000000000001
    vertex 5.633974596215562 1.9999999999999996 7.049916206369744e-16
  endloop
endfacet
facet normal 0.9238795325112859 0.3826834323650917 -8.2097510762415e-32
  outer loop
    vertex 5.633974596215562 1.9999999999999996 0.5000000000000001
    vertex 5.534074173710931 2.2411809548974784 7.049916206369744e-16
    vertex 5.534074173710931 2.2411809548974784 0.5000000000000001
  endloop
endfacet
facet normal 0.7933533402912347 0.6087614290087213 -5.160300721416601e-32
  outer loop
    vertex 5.633974596215562 1.9999999999999996 7.049916206369744e-16
    vertex 5.692754731248486 1.9233962366060608 0.5000000000000001
    vertex 5.692754731248486 1.9233962366060608 7.049916206369744e-16
  endloop
endfacet
facet normal 0.7933533402912347 0.6087614290087213 -5.160300721416601e-32
  outer loop
    vertex 5.692754731248486 1.9233962366060608 0.5000000000000001
    vertex 5.633974596215562 1.9999999999999996 7.049916206369744e-16
    vertex 5.633974596215562 1.9999999999999996 0.5000000000000001
  endloop
endfacet
facet normal 0.793353340291236 0.6087614290087198 -5.160300721416627e-32
  outer loop
    vertex 5.692754731248486 1.9233962366060608 7.049916206369744e-16
    vertex 5.792893218813452 1.7928932188134525 0.5000000000000001
    vertex 5.792893218813452 1.7928932188134525 7.049916206369744e-16
  endloop
endfacet
facet normal 0.793353340291236 0.6087614290087198 -5.160300721416627e-32
  outer loop
    vertex 5.792893218813452 1.7928932188134525 0.5000000000000001
    vertex 5.692754731248486 1.9233962366060608 7.049916206369744e-16
    vertex 5.692754731248486 1.9233962366060608 0.5000000000000001
  endloop
endfacet
facet normal 0.6087614290087201 0.7933533402912358 -1.7591844002272982e-32
  outer loop
    vertex 5.792893218813452 1.7928932188134525 0.5000000000000001
    vertex 6.0 1.6339745962155612 7.049916206369744e-16
    vertex 5.792893218813452 1.7928932188134525 7.049916206369744e-16
  endloop
endfacet
facet normal 0.6087614290087201 0.7933533402912358 -1.7591844002272982e-32
  outer loop
    vertex 6.0 1.6339745962155612 7.049916206369744e-16
    vertex 5.792893218813452 1.7928932188134525 0.5000000000000001
    vertex 6.0 1.6339745962155612 0.5000000000000001
  endloop
endfacet
facet normal 0.38268343236508956 0.9238795325112868 1.761817430647811e-32
  outer loop
    vertex 6.0 1.6339745962155612 0.5000000000000001
    vertex 6.241180954897479 1.5340741737109316 7.049916206369744e-16
    vertex 6.0 1.6339745962155612 7.049916206369744e-16
  endloop
endfacet
facet normal 0.38268343236508956 0.9238795325112868 1.761817430647811e-32
  outer loop
    vertex 6.241180954897479 1.5340741737109316 7.049916206369744e-16
    vertex 6.0 1.6339745962155612 0.5000000000000001
    vertex 6.241180954897479 1.5340741737109316 0.5000000000000001
  endloop
endfacet
facet normal 0.13052619222005152 0.9914448613738106 5.162754315165245e-32
  outer loop
    vertex 6.241180954897479 1.5340741737109316 0.5000000000000001
    vertex 6.499999999999999 1.5 7.049916206369744e-16
    vertex 6.241180954897479 1.5340741737109316 7.049916206369744e-16
  endloop
endfacet
facet normal 0.13052619222005152 0.9914448613738106 5.162754315165245e-32
  outer loop
    vertex 6.499999999999999 1.5 7.049916206369744e-16
    vertex 6.241180954897479 1.5340741737109316 0.5000000000000001
    vertex 6.499999999999999 1.5 0.5000000000000001
  endloop
endfacet
facet normal -0.13052619222005213 0.9914448613738105 8.211858024959079e-32
  outer loop
    vertex 6.499999999999999 1.5 0.5000000000000001
    vertex 6.758819045102521 1.534074173710932 7.049916206369744e-16
    vertex 6.499999999999999 1.5 7.049916206369744e-16
  endloop
endfacet
facet normal -0.13052619222005213 0.9914448613738105 8.211858024959079e-32
  outer loop
    vertex 6.758819045102521 1.534074173710932 7.049916206369744e-16
    vertex 6.499999999999999 1.5 0.5000000000000001
    vertex 6.758819045102521 1.534074173710932 0.5000000000000001
  endloop
endfacet
facet normal -0.3826834323650908 0.9238795325112864 1.0701337181088982e-31
  outer loop
    vertex 6.758819045102521 1.534074173710932 0.5000000000000001
    vertex 7.0 1.6339745962155618 7.049916206369744e-16
    vertex 6.758819045102521 1.534074173710932 7.049916206369744e-16
  endloop
endfacet
facet normal -0.3826834323650908 0.9238795325112864 1.0701337181088982e-31
  outer loop
    vertex 7.0 1.6339745962155618 7.049916206369744e-16
    vertex 6.758819045102521 1.534074173710932 0.5000000000000001
    vertex 7.0 1.6339745962155618 0.5000000000000001
  endloop
endfacet
facet normal -0.6087614290087205 0.7933533402912354 1.246153789312352e-31
  outer loop
    vertex 7.0 1.6339745962155618 0.5000000000000001
    vertex 7.207106781186547 1.7928932188134528 7.049916206369744e-16
    vertex 7.0 1.6339745962155618 7.049916206369744e-16
  endloop
endfacet
facet normal -0.6087614290087205 0.7933533402912354 1.246153789312352e-31
  outer loop
    vertex 7.207106781186547 1.7928932188134528 7.049916206369744e-16
    vertex 7.0 1.6339745962155618 0.5000000000000001
    vertex 7.207106781186547 1.7928932188134528 0.5000000000000001
  endloop
endfacet
facet normal -0.7933533402912347 0.6087614290087213 1.3372505391406764e-31
  outer loop
    vertex 7.366025403784438 2.0 0.5000000000000001
    vertex 7.207106781186547 1.7928932188134528 7.049916206369744e-16
    vertex 7.207106781186547 1.7928932188134528 0.5000000000000001
  endloop
endfacet
facet normal -0.7933533402912347 0.6087614290087213 1.3372505391406764e-31
  outer loop
    vertex 7.207106781186547 1.7928932188134528 7.049916206369744e-16
    vertex 7.366025403784438 2.0 0.5000000000000001
    vertex 7.366025403784438 2.0 7.049916206369744e-16
  endloop
endfacet
facet normal -0.9238795325112881 0.3826834323650867 1.3372158746375677e-31
  outer loop
    vertex 7.465925826289067 2.2411809548974793 0.5000000000000001
    vertex 7.366025403784438 2.0 7.049916206369744e-16
    vertex 7.366025403784438 2.0 0.5000000000000001
  endloop
endfacet
facet normal -0.9238795325112881 0.3826834323650867 1.3372158746375677e-31
  outer loop
    vertex 7.366025403784438 2.0 7.049916206369744e-16
    vertex 7.465925826289067 2.2411809548974793 0.5000000000000001
    vertex 7.465925826289067 2.2411809548974793 7.049916206369744e-16
  endloop
endfacet
facet normal -0.9914448613738105 0.130526192220052 1.2460521581316286e-31
  outer loop
    vertex 7.499999999999999 2.4999999999999996 0.5000000000000001
    vertex 7.465925826289067 2.2411809548974793 7.049916206369744e-16
    vertex 7.465925826289067 2.2411809548974793 0.5000000000000001
  endloop
endfacet
facet normal -0.9914448613738105 0.130526192220052 1.2460521581316286e-31
  outer loop
    vertex 7.465925826289067 2.2411809548974793 7.049916206369744e-16
    vertex 7.499999999999999 2.4999999999999996 0.5000000000000001
    vertex 7.499999999999999 2.4999999999999996 7.049916206369744e-16
  endloop
endfacet
facet normal -0.9914448613738104 -0.13052619222005163 1.0699720462475708e-31
  outer loop
    vertex 7.465925826289067 2.7588190451025207 0.5000000000000001
    vertex 7.499999999999999 2.4999999999999996 7.049916206369744e-16
    vertex 7.499999999999999 2.4999999999999996 0.5000000000000001
  endloop
endfacet
facet normal -0.9914448613738104 -0.13052619222005163 1.0699720462475708e-31
  outer loop
    vertex 7.499999999999999 2.4999999999999996 7.049916206369744e-16
    vertex 7.465925826289067 2.7588190451025207 0.5000000000000001
    vertex 7.465925826289067 2.7588190451025207 7.049916206369744e-16
  endloop
endfacet
facet normal -0.9238795325112863 -0.3826834323650914 8.209751076241505e-32
  outer loop
    vertex 7.3660254037844375 3.0 0.5000000000000001
    vertex 7.465925826289067 2.7588190451025207 7.049916206369744e-16
    vertex 7.465925826289067 2.7588190451025207 0.5000000000000001
  endloop
endfacet
facet normal -0.9238795325112863 -0.3826834323650914 8.209751076241505e-32
  outer loop
    vertex 7.465925826289067 2.7588190451025207 7.049916206369744e-16
    vertex 7.3660254037844375 3.0 0.5000000000000001
    vertex 7.3660254037844375 3.0 7.049916206369744e-16
  endloop
endfacet
facet normal 0.1305261922200517 0.9914448613738105 4.151887266763766e-32
  outer loop
    vertex 3.0 4.999999999999999 83.0
    vertex 3.6470476127563023 4.91481456572267 78.0
    vertex 3.0 4.999999999999999 78.0
  endloop
endfacet
facet normal 0.1305261922200517 0.9914448613738105 4.151887266763766e-32
  outer loop
    vertex 3.6470476127563023 4.91481456572267 78.0
    vertex 3.0 4.999999999999999 83.0
    vertex 3.6470476127563023 4.91481456572267 83.0
  endloop
endfacet
facet normal -0.13052619222005238 -0.9914448613738105 0.0
  outer loop
    vertex 3.4141104721640336 4.045481322062509 83.0
    vertex 3.0 4.1 78.0
    vertex 3.4141104721640336 4.045481322062509 78.0
  endloop
endfacet
facet normal -0.13052619222005238 -0.9914448613738105 0.0
  outer loop
    vertex 3.0 4.1 78.0
    vertex 3.4141104721640336 4.045481322062509 83.0
    vertex 3.0 4.1 83.0
  endloop
endfacet
facet normal -0.3826834323650896 -0.9238795325112868 0.0
  outer loop
    vertex 3.8000000000000003 3.8856406460551014 83.0
    vertex 3.4141104721640336 4.045481322062509 78.0
    vertex 3.8000000000000003 3.8856406460551014 78.0
  endloop
endfacet
facet normal -0.3826834323650896 -0.9238795325112868 0.0
  outer loop
    vertex 3.4141104721640336 4.045481322062509 78.0
    vertex 3.8000000000000003 3.8856406460551014 83.0
    vertex 3.4141104721640336 4.045481322062509 83.0
  endloop
endfacet
facet normal -0.6087614290087198 -0.7933533402912358 -1.7032752098470413e-18
  outer loop
    vertex 4.1313708498984765 3.631370849898476 83.0
    vertex 3.8000000000000003 3.8856406460551014 78.0
    vertex 4.1313708498984765 3.631370849898476 78.0
  endloop
endfacet
facet normal -0.6087614290087198 -0.7933533402912358 -1.7032752098470413e-18
  outer loop
    vertex 3.8000000000000003 3.8856406460551014 78.0
    vertex 4.1313708498984765 3.631370849898476 83.0
    vertex 3.8000000000000003 3.8856406460551014 83.0
  endloop
endfacet
facet normal -0.7933533402912358 -0.6087614290087198 -1.7032752098470413e-18
  outer loop
    vertex 4.1313708498984765 3.631370849898476 83.0
    vertex 4.385640646055101 3.2999999999999994 78.0
    vertex 4.385640646055101 3.2999999999999994 83.0
  endloop
endfacet
facet normal -0.7933533402912358 -0.6087614290087198 -1.7032752098470413e-18
  outer loop
    vertex 4.385640646055101 3.2999999999999994 78.0
    vertex 4.1313708498984765 3.631370849898476 83.0
    vertex 4.1313708498984765 3.631370849898476 78.0
  endloop
endfacet
facet normal -0.9238795325112868 -0.3826834323650896 -5.877507957315562e-31
  outer loop
    vertex 4.385640646055101 3.2999999999999994 83.0
    vertex 4.545481322062509 2.914110472164033 78.0
    vertex 4.545481322062509 2.914110472164033 83.0
  endloop
endfacet
facet normal -0.9238795325112868 -0.3826834323650896 -5.877507957315562e-31
  outer loop
    vertex 4.545481322062509 2.914110472164033 78.0
    vertex 4.385640646055101 3.2999999999999994 83.0
    vertex 4.385640646055101 3.2999999999999994 78.0
  endloop
endfacet
facet normal -0.9914448613738105 -0.13052619222005238 0.0
  outer loop
    vertex 4.545481322062509 2.914110472164033 83.0
    vertex 4.6 2.4999999999999996 78.0
    vertex 4.6 2.4999999999999996 83.0
  endloop
endfacet
facet normal -0.9914448613738105 -0.13052619222005238 0.0
  outer loop
    vertex 4.6 2.4999999999999996 78.0
    vertex 4.545481322062509 2.914110472164033 83.0
    vertex 4.545481322062509 2.914110472164033 78.0
  endloop
endfacet
facet normal -0.9914448613738103 0.1305261922200525 3.652038661611423e-19
  outer loop
    vertex 4.6 2.4999999999999996 83.0
    vertex 4.545481322062509 2.085889527835967 78.0
    vertex 4.545481322062509 2.085889527835967 83.0
  endloop
endfacet
facet normal -0.9914448613738103 0.1305261922200525 3.652038661611423e-19
  outer loop
    vertex 4.545481322062509 2.085889527835967 78.0
    vertex 4.6 2.4999999999999996 83.0
    vertex 4.6 2.4999999999999996 78.0
  endloop
endfacet
facet normal -0.9238795325112868 0.3826834323650896 0.0
  outer loop
    vertex 4.545481322062509 2.085889527835967 83.0
    vertex 4.385640646055101 1.7 78.0
    vertex 4.385640646055101 1.7 83.0
  endloop
endfacet
facet normal -0.9238795325112868 0.3826834323650896 0.0
  outer loop
    vertex 4.385640646055101 1.7 78.0
    vertex 4.545481322062509 2.085889527835967 83.0
    vertex 4.545481322062509 2.085889527835967 78.0
  endloop
endfacet
facet normal -0.793353340291236 0.6087614290087198 -2.5235652519814066e-31
  outer loop
    vertex 4.385640646055101 1.7 83.0
    vertex 4.1313708498984765 1.3686291501015238 78.0
    vertex 4.1313708498984765 1.3686291501015238 83.0
  endloop
endfacet
facet normal -0.793353340291236 0.6087614290087198 -2.5235652519814066e-31
  outer loop
    vertex 4.1313708498984765 1.3686291501015238 78.0
    vertex 4.385640646055101 1.7 83.0
    vertex 4.385640646055101 1.7 78.0
  endloop
endfacet
facet normal -0.6087614290087211 0.793353340291235 -0.0
  outer loop
    vertex 3.8000000000000007 1.1143593539448982 83.0
    vertex 4.1313708498984765 1.3686291501015238 78.0
    vertex 3.8000000000000007 1.1143593539448982 78.0
  endloop
endfacet
facet normal -0.6087614290087211 0.793353340291235 -0.0
  outer loop
    vertex 4.1313708498984765 1.3686291501015238 78.0
    vertex 3.8000000000000007 1.1143593539448982 83.0
    vertex 4.1313708498984765 1.3686291501015238 83.0
  endloop
endfacet
facet normal -0.38268343236508945 0.9238795325112871 -1.0707235585344447e-18
  outer loop
    vertex 3.4141104721640336 0.9545186779374907 83.0
    vertex 3.8000000000000007 1.1143593539448982 78.0
    vertex 3.4141104721640336 0.9545186779374907 78.0
  endloop
endfacet
facet normal -0.38268343236508945 0.9238795325112871 -1.0707235585344447e-18
  outer loop
    vertex 3.8000000000000007 1.1143593539448982 78.0
    vertex 3.4141104721640336 0.9545186779374907 83.0
    vertex 3.8000000000000007 1.1143593539448982 83.0
  endloop
endfacet
facet normal -0.13052619222005207 0.9914448613738105 -3.6520386616185074e-19
  outer loop
    vertex 3.0000000000000004 0.8999999999999998 83.0
    vertex 3.4141104721640336 0.9545186779374907 78.0
    vertex 3.0000000000000004 0.8999999999999998 78.0
  endloop
endfacet
facet normal -0.13052619222005207 0.9914448613738105 -3.6520386616185074e-19
  outer loop
    vertex 3.4141104721640336 0.9545186779374907 78.0
    vertex 3.0000000000000004 0.8999999999999998 83.0
    vertex 3.4141104721640336 0.9545186779374907 83.0
  endloop
endfacet
facet normal 0.13052619222005213 -0.9914448613738105 0.0
  outer loop
    vertex 3.6470476127563027 0.08518543427732973 83.0
    vertex 3.0 0.0 78.0
    vertex 3.6470476127563027 0.08518543427732973 78.0
  endloop
endfacet
facet normal 0.13052619222005213 -0.9914448613738105 0.0
  outer loop
    vertex 3.0 0.0 78.0
    vertex 3.6470476127563027 0.08518543427732973 83.0
    vertex 3.0 0.0 83.0
  endloop
endfacet
facet normal 0.38268343236509045 -0.9238795325112866 0.0
  outer loop
    vertex 4.250000000000001 0.3349364905389042 83.0
    vertex 3.6470476127563027 0.08518543427732973 78.0
    vertex 4.250000000000001 0.3349364905389042 78.0
  endloop
endfacet
facet normal 0.38268343236509045 -0.9238795325112866 0.0
  outer loop
    vertex 3.6470476127563027 0.08518543427732973 78.0
    vertex 4.250000000000001 0.3349364905389042 83.0
    vertex 3.6470476127563027 0.08518543427732973 83.0
  endloop
endfacet
facet normal 0.6087614290087207 -0.7933533402912354 0.0
  outer loop
    vertex 4.767766952966369 0.7322330470336317 83.0
    vertex 4.250000000000001 0.3349364905389042 78.0
    vertex 4.767766952966369 0.7322330470336317 78.0
  endloop
endfacet
facet normal 0.6087614290087207 -0.7933533402912354 0.0
  outer loop
    vertex 4.250000000000001 0.3349364905389042 78.0
    vertex 4.767766952966369 0.7322330470336317 83.0
    vertex 4.250000000000001 0.3349364905389042 83.0
  endloop
endfacet
facet normal 0.7933533402912354 -0.6087614290087203 0.0
  outer loop
    vertex 5.165063509461096 1.2500000000000004 78.0
    vertex 4.767766952966369 0.7322330470336317 83.0
    vertex 4.767766952966369 0.7322330470336317 78.0
  endloop
endfacet
facet normal 0.7933533402912354 -0.6087614290087203 0.0
  outer loop
    vertex 4.767766952966369 0.7322330470336317 83.0
    vertex 5.165063509461096 1.2500000000000004 78.0
    vertex 5.165063509461096 1.2500000000000004 83.0
  endloop
endfacet
facet normal 0.923879532511287 -0.3826834323650895 0.0
  outer loop
    vertex 5.41481456572267 1.8529523872436984 78.0
    vertex 5.165063509461096 1.2500000000000004 83.0
    vertex 5.165063509461096 1.2500000000000004 78.0
  endloop
endfacet
facet normal 0.923879532511287 -0.3826834323650895 0.0
  outer loop
    vertex 5.165063509461096 1.2500000000000004 83.0
    vertex 5.41481456572267 1.8529523872436984 78.0
    vertex 5.41481456572267 1.8529523872436984 83.0
  endloop
endfacet
facet normal 0.9914448613738104 -0.13052619222005188 0.0
  outer loop
    vertex 5.5 2.4999999999999996 78.0
    vertex 5.41481456572267 1.8529523872436984 83.0
    vertex 5.41481456572267 1.8529523872436984 78.0
  endloop
endfacet
facet normal 0.9914448613738104 -0.13052619222005188 0.0
  outer loop
    vertex 5.41481456572267 1.8529523872436984 83.0
    vertex 5.5 2.4999999999999996 78.0
    vertex 5.5 2.4999999999999996 83.0
  endloop
endfacet
facet normal 0.9914448613738104 0.13052619222005166 0.0
  outer loop
    vertex 5.41481456572267 3.147047612756302 78.0
    vertex 5.5 2.4999999999999996 83.0
    vertex 5.5 2.4999999999999996 78.0
  endloop
endfacet
facet normal 0.9914448613738104 0.13052619222005166 0.0
  outer loop
    vertex 5.5 2.4999999999999996 83.0
    vertex 5.41481456572267 3.147047612756302 78.0
    vertex 5.41481456572267 3.147047612756302 83.0
  endloop
endfacet
facet normal 0.923879532511287 0.3826834323650897 0.0
  outer loop
    vertex 5.165063509461096 3.7499999999999996 78.0
    vertex 5.41481456572267 3.147047612756302 83.0
    vertex 5.41481456572267 3.147047612756302 78.0
  endloop
endfacet
facet normal 0.923879532511287 0.3826834323650897 0.0
  outer loop
    vertex 5.41481456572267 3.147047612756302 83.0
    vertex 5.165063509461096 3.7499999999999996 78.0
    vertex 5.165063509461096 3.7499999999999996 83.0
  endloop
endfacet
facet normal 0.7933533402912354 0.6087614290087207 0.0
  outer loop
    vertex 4.767766952966369 4.267766952966368 78.0
    vertex 5.165063509461096 3.7499999999999996 83.0
    vertex 5.165063509461096 3.7499999999999996 78.0
  endloop
endfacet
facet normal 0.7933533402912354 0.6087614290087207 0.0
  outer loop
    vertex 5.165063509461096 3.7499999999999996 83.0
    vertex 4.767766952966369 4.267766952966368 78.0
    vertex 4.767766952966369 4.267766952966368 83.0
  endloop
endfacet
facet normal 0.6087614290087208 0.793353340291235 0.0
  outer loop
    vertex 4.25 4.665063509461096 83.0
    vertex 4.767766952966369 4.267766952966368 78.0
    vertex 4.25 4.665063509461096 78.0
  endloop
endfacet
facet normal 0.6087614290087208 0.793353340291235 0.0
  outer loop
    vertex 4.767766952966369 4.267766952966368 78.0
    vertex 4.25 4.665063509461096 83.0
    vertex 4.767766952966369 4.267766952966368 83.0
  endloop
endfacet
facet normal 0.3826834323650895 0.923879532511287 0.0
  outer loop
    vertex 3.6470476127563023 4.91481456572267 83.0
    vertex 4.25 4.665063509461096 78.0
    vertex 3.6470476127563023 4.91481456572267 78.0
  endloop
endfacet
facet normal 0.3826834323650895 0.923879532511287 0.0
  outer loop
    vertex 4.25 4.665063509461096 78.0
    vertex 3.6470476127563023 4.91481456572267 83.0
    vertex 4.25 4.665063509461096 83.0
  endloop
endfacet
facet normal 0.13052619222005127 0.9914448613738105 2.8068683783152363e-19
  outer loop
    vertex 2.5858895278359677 0.9545186779374903 78.00000000000001
    vertex 3.0000000000000004 0.8999999999999998 83.0
    vertex 3.0000000000000004 0.8999999999999998 78.0
  endloop
endfacet
facet normal 0.13052619222005127 0.9914448613738105 2.8068683783152363e-19
  outer loop
    vertex 3.0000000000000004 0.8999999999999998 83.0
    vertex 2.5858895278359677 0.9545186779374903 78.00000000000001
    vertex 2.5858895278359677 0.9545186779374903 83.0
  endloop
endfacet
facet normal 0.13052619222005207 -0.9914448613738105 -6.606300821599546e-20
  outer loop
    vertex 3.0 4.1 83.0
    vertex 2.585889527835966 4.045481322062509 78.00000000000001
    vertex 3.0 4.1 78.0
  endloop
endfacet
facet normal 0.13052619222005207 -0.9914448613738105 -6.606300821599546e-20
  outer loop
    vertex 2.585889527835966 4.045481322062509 78.00000000000001
    vertex 3.0 4.1 83.0
    vertex 2.585889527835966 4.045481322062509 83.0
  endloop
endfacet
facet normal 0.38268343236508995 -0.9238795325112868 -0.0
  outer loop
    vertex 2.585889527835966 4.045481322062509 83.0
    vertex 2.1999999999999993 3.8856406460551014 78.00000000000001
    vertex 2.585889527835966 4.045481322062509 78.00000000000001
  endloop
endfacet
facet normal 0.38268343236508995 -0.9238795325112868 -0.0
  outer loop
    vertex 2.1999999999999993 3.8856406460551014 78.00000000000001
    vertex 2.585889527835966 4.045481322062509 83.0
    vertex 2.1999999999999993 3.8856406460551014 83.0
  endloop
endfacet
facet normal 0.6087614290087217 -0.7933533402912344 -0.0
  outer loop
    vertex 2.1999999999999993 3.8856406460551014 83.0
    vertex 1.868629150101524 3.631370849898475 78.00000000000001
    vertex 2.1999999999999993 3.8856406460551014 78.00000000000001
  endloop
endfacet
facet normal 0.6087614290087217 -0.7933533402912344 -0.0
  outer loop
    vertex 1.868629150101524 3.631370849898475 78.00000000000001
    vertex 2.1999999999999993 3.8856406460551014 83.0
    vertex 1.868629150101524 3.631370849898475 83.0
  endloop
endfacet
facet normal 0.7933533402912358 -0.6087614290087201 -0.0
  outer loop
    vertex 1.868629150101524 3.631370849898475 78.00000000000001
    vertex 1.614359353944898 3.299999999999998 83.0
    vertex 1.614359353944898 3.299999999999998 78.00000000000001
  endloop
endfacet
facet normal 0.7933533402912358 -0.6087614290087201 -0.0
  outer loop
    vertex 1.614359353944898 3.299999999999998 83.0
    vertex 1.868629150101524 3.631370849898475 78.00000000000001
    vertex 1.868629150101524 3.631370849898475 83.0
  endloop
endfacet
facet normal 0.9238795325112868 -0.38268343236508984 -0.0
  outer loop
    vertex 1.614359353944898 3.299999999999998 78.00000000000001
    vertex 1.4545186779374908 2.9141104721640323 83.0
    vertex 1.4545186779374908 2.9141104721640323 78.00000000000001
  endloop
endfacet
facet normal 0.9238795325112868 -0.38268343236508984 -0.0
  outer loop
    vertex 1.4545186779374908 2.9141104721640323 83.0
    vertex 1.614359353944898 3.299999999999998 78.00000000000001
    vertex 1.614359353944898 3.299999999999998 83.0
  endloop
endfacet
facet normal 0.9914448613738106 -0.13052619222005124 -0.0
  outer loop
    vertex 1.4545186779374908 2.9141104721640323 78.00000000000001
    vertex 1.4000000000000004 2.499999999999999 83.0
    vertex 1.4000000000000004 2.499999999999999 78.00000000000001
  endloop
endfacet
facet normal 0.9914448613738106 -0.13052619222005124 -0.0
  outer loop
    vertex 1.4000000000000004 2.499999999999999 83.0
    vertex 1.4545186779374908 2.9141104721640323 78.00000000000001
    vertex 1.4545186779374908 2.9141104721640323 83.0
  endloop
endfacet
facet normal 0.9914448613738105 0.13052619222005216 0.0
  outer loop
    vertex 1.4000000000000004 2.499999999999999 78.00000000000001
    vertex 1.4545186779374912 2.0858895278359655 83.0
    vertex 1.4545186779374912 2.0858895278359655 78.00000000000001
  endloop
endfacet
facet normal 0.9914448613738105 0.13052619222005216 0.0
  outer loop
    vertex 1.4545186779374912 2.0858895278359655 83.0
    vertex 1.4000000000000004 2.499999999999999 78.00000000000001
    vertex 1.4000000000000004 2.499999999999999 83.0
  endloop
endfacet
facet normal 0.9238795325112868 0.38268343236508995 0.0
  outer loop
    vertex 1.4545186779374912 2.0858895278359655 78.00000000000001
    vertex 1.6143593539448986 1.699999999999999 83.0
    vertex 1.6143593539448986 1.699999999999999 78.00000000000001
  endloop
endfacet
facet normal 0.9238795325112868 0.38268343236508995 0.0
  outer loop
    vertex 1.6143593539448986 1.699999999999999 83.0
    vertex 1.4545186779374912 2.0858895278359655 78.00000000000001
    vertex 1.4545186779374912 2.0858895278359655 83.0
  endloop
endfacet
facet normal 0.7933533402912347 0.6087614290087212 0.0
  outer loop
    vertex 1.6143593539448986 1.699999999999999 78.00000000000001
    vertex 1.8686291501015246 1.368629150101523 83.0
    vertex 1.8686291501015246 1.368629150101523 78.00000000000001
  endloop
endfacet
facet normal 0.7933533402912347 0.6087614290087212 0.0
  outer loop
    vertex 1.8686291501015246 1.368629150101523 83.0
    vertex 1.6143593539448986 1.699999999999999 78.00000000000001
    vertex 1.6143593539448986 1.699999999999999 83.0
  endloop
endfacet
facet normal 0.6087614290087201 0.7933533402912358 0.0
  outer loop
    vertex 1.8686291501015246 1.368629150101523 83.0
    vertex 2.200000000000001 1.1143593539448975 78.00000000000001
    vertex 1.8686291501015246 1.368629150101523 78.00000000000001
  endloop
endfacet
facet normal 0.6087614290087201 0.7933533402912358 0.0
  outer loop
    vertex 2.200000000000001 1.1143593539448975 78.00000000000001
    vertex 1.8686291501015246 1.368629150101523 83.0
    vertex 2.200000000000001 1.1143593539448975 83.0
  endloop
endfacet
facet normal 0.38268343236508967 0.923879532511287 0.0
  outer loop
    vertex 2.200000000000001 1.1143593539448975 83.0
    vertex 2.5858895278359677 0.9545186779374903 78.00000000000001
    vertex 2.200000000000001 1.1143593539448975 78.00000000000001
  endloop
endfacet
facet normal 0.38268343236508967 0.923879532511287 0.0
  outer loop
    vertex 2.5858895278359677 0.9545186779374903 78.00000000000001
    vertex 2.200000000000001 1.1143593539448975 83.0
    vertex 2.5858895278359677 0.9545186779374903 83.0
  endloop
endfacet
facet normal 4.462452501575056e-15 2.6620759475801245e-30 1.0
  outer loop
    vertex 1.4545186779374912 2.0858895278359655 78.00000000000001
    vertex 1.4545186779374908 2.9141104721640323 78.00000000000001
    vertex 1.4000000000000004 2.499999999999999 78.00000000000001
  endloop
endfacet
facet normal 4.462452501575056e-15 2.6620759475801245e-30 1.0
  outer loop
    vertex 1.4545186779374908 2.9141104721640323 78.00000000000001
    vertex 1.4545186779374912 2.0858895278359655 78.00000000000001
    vertex 1.614359353944898 3.299999999999998 78.00000000000001
  endloop
endfacet
facet normal 4.462452501575056e-15 2.6620759475801245e-30 1.0
  outer loop
    vertex 1.614359353944898 3.299999999999998 78.00000000000001
    vertex 1.4545186779374912 2.0858895278359655 78.00000000000001
    vertex 1.6143593539448986 1.699999999999999 78.00000000000001
  endloop
endfacet
facet normal 4.462452501575056e-15 2.6620759475801245e-30 1.0
  outer loop
    vertex 1.614359353944898 3.299999999999998 78.00000000000001
    vertex 1.6143593539448986 1.699999999999999 78.00000000000001
    vertex 1.868629150101524 3.631370849898475 78.00000000000001
  endloop
endfacet
facet normal 4.462452501575056e-15 2.6620759475801245e-30 1.0
  outer loop
    vertex 1.868629150101524 3.631370849898475 78.00000000000001
    vertex 1.6143593539448986 1.699999999999999 78.00000000000001
    vertex 1.8686291501015246 1.368629150101523 78.00000000000001
  endloop
endfacet
facet normal 4.462452501575056e-15 2.6620759475801245e-30 1.0
  outer loop
    vertex 1.868629150101524 3.631370849898475 78.00000000000001
    vertex 1.8686291501015246 1.368629150101523 78.00000000000001
    vertex 2.1999999999999993 3.8856406460551014 78.00000000000001
  endloop
endfacet
facet normal 4.462452501575056e-15 2.6620759475801245e-30 1.0
  outer loop
    vertex 2.1999999999999993 3.8856406460551014 78.00000000000001
    vertex 1.8686291501015246 1.368629150101523 78.00000000000001
    vertex 2.200000000000001 1.1143593539448975 78.00000000000001
  endloop
endfacet
facet normal 4.462452501575056e-15 2.6620759475801245e-30 1.0
  outer loop
    vertex 2.1999999999999993 3.8856406460551014 78.00000000000001
    vertex 2.200000000000001 1.1143593539448975 78.00000000000001
    vertex 2.585889527835966 4.045481322062509 78.00000000000001
  endloop
endfacet
facet normal 4.462452501575056e-15 2.6620759475801245e-30 1.0
  outer loop
    vertex 2.585889527835966 4.045481322062509 78.00000000000001
    vertex 2.200000000000001 1.1143593539448975 78.00000000000001
    vertex 2.5858895278359677 0.9545186779374903 78.00000000000001
  endloop
endfacet
facet normal 4.462452501575056e-15 2.6620759475801245e-30 1.0
  outer loop
    vertex 2.585889527835966 4.045481322062509 78.00000000000001
    vertex 2.5858895278359677 0.9545186779374903 78.00000000000001
    vertex 3.0 4.1 78.0
  endloop
endfacet
facet normal 4.462452501575056e-15 2.6620759475801245e-30 1.0
  outer loop
    vertex 3.0 4.1 78.0
    vertex 2.5858895278359677 0.9545186779374903 78.00000000000001
    vertex 3.0000000000000004 0.8999999999999998 78.0
  endloop
endfacet
facet normal 4.462452501575056e-15 2.6620759475801245e-30 1.0
  outer loop
    vertex 3.0 4.1 78.0
    vertex 3.0000000000000004 0.8999999999999998 78.0
    vertex 3.4141104721640336 4.045481322062509 78.0
  endloop
endfacet
facet normal 4.462452501575056e-15 2.6620759475801245e-30 1.0
  outer loop
    vertex 3.4141104721640336 4.045481322062509 78.0
    vertex 3.0000000000000004 0.8999999999999998 78.0
    vertex 3.4141104721640336 0.9545186779374907 78.0
  endloop
endfacet
facet normal 4.462452501575056e-15 2.6620759475801245e-30 1.0
  outer loop
    vertex 3.4141104721640336 4.045481322062509 78.0
    vertex 3.4141104721640336 0.9545186779374907 78.0
    vertex 3.8000000000000007 1.1143593539448982 78.0
  endloop
endfacet
facet normal 4.462452501575056e-15 2.6620759475801245e-30 1.0
  outer loop
    vertex 3.4141104721640336 4.045481322062509 78.0
    vertex 3.8000000000000007 1.1143593539448982 78.0
    vertex 3.8000000000000003 3.8856406460551014 78.0
  endloop
endfacet
facet normal 4.462452501575056e-15 2.6620759475801245e-30 1.0
  outer loop
    vertex 3.8000000000000003 3.8856406460551014 78.0
    vertex 3.8000000000000007 1.1143593539448982 78.0
    vertex 4.1313708498984765 3.631370849898476 78.0
  endloop
endfacet
facet normal 4.462452501575056e-15 2.6620759475801245e-30 1.0
  outer loop
    vertex 4.1313708498984765 3.631370849898476 78.0
    vertex 3.8000000000000007 1.1143593539448982 78.0
    vertex 4.1313708498984765 1.3686291501015238 78.0
  endloop
endfacet
facet normal 4.462452501575056e-15 2.6620759475801245e-30 1.0
  outer loop
    vertex 4.1313708498984765 3.631370849898476 78.0
    vertex 4.1313708498984765 1.3686291501015238 78.0
    vertex 4.385640646055101 1.7 78.0
  endloop
endfacet
facet normal 4.462452501575056e-15 2.6620759475801245e-30 1.0
  outer loop
    vertex 4.1313708498984765 3.631370849898476 78.0
    vertex 4.385640646055101 1.7 78.0
    vertex 4.385640646055101 3.2999999999999994 78.0
  endloop
endfacet
facet normal 4.462452501575056e-15 2.6620759475801245e-30 1.0
  outer loop
    vertex 4.385640646055101 3.2999999999999994 78.0
    vertex 4.385640646055101 1.7 78.0
    vertex 4.545481322062509 2.085889527835967 78.0
  endloop
endfacet
facet normal 4.462452501575056e-15 2.6620759475801245e-30 1.0
  outer loop
    vertex 4.385640646055101 3.2999999999999994 78.0
    vertex 4.545481322062509 2.085889527835967 78.0
    vertex 4.545481322062509 2.914110472164033 78.0
  endloop
endfacet
facet normal 4.462452501575056e-15 2.6620759475801245e-30 1.0
  outer loop
    vertex 4.545481322062509 2.914110472164033 78.0
    vertex 4.545481322062509 2.085889527835967 78.0
    vertex 4.6 2.4999999999999996 78.0
  endloop
endfacet
facet normal 0.704062592219636 -0.09269159872357155 -0.7040625922196372
  outer loop
    vertex 5.5 2.4999999999999996 78.0
    vertex 5.41481456572267 1.8529523872436984 78.0
    vertex 3.0 2.4999999999999996 75.50000000000001
  endloop
endfacet
facet normal 0.6560818900783146 -0.2717580168978118 -0.7040625922196371
  outer loop
    vertex 5.41481456572267 1.8529523872436984 78.0
    vertex 5.165063509461096 1.2500000000000004 78.0
    vertex 3.0 2.4999999999999996 75.50000000000001
  endloop
endfacet
facet normal 0.5633902913547427 -0.4323045753218241 -0.7040625922196374
  outer loop
    vertex 5.165063509461096 1.2500000000000004 78.0
    vertex 4.767766952966369 0.7322330470336317 78.0
    vertex 3.0 2.4999999999999996 75.50000000000001
  endloop
endfacet
facet normal 0.43230457532182426 -0.5633902913547432 -0.704062592219637
  outer loop
    vertex 4.767766952966369 0.7322330470336317 78.0
    vertex 4.250000000000001 0.3349364905389042 78.0
    vertex 3.0 2.4999999999999996 75.50000000000001
  endloop
endfacet
facet normal 0.27175801689781276 -0.6560818900783143 -0.7040625922196371
  outer loop
    vertex 4.250000000000001 0.3349364905389042 78.0
    vertex 3.6470476127563027 0.08518543427732973 78.0
    vertex 3.0 2.4999999999999996 75.50000000000001
  endloop
endfacet
facet normal 0.09269159872357202 -0.7040625922196359 -0.7040625922196372
  outer loop
    vertex 3.6470476127563027 0.08518543427732973 78.0
    vertex 3.0 0.0 78.0
    vertex 3.0 2.4999999999999996 75.50000000000001
  endloop
endfacet
facet normal 0.704062592219636 0.09269159872357126 -0.7040625922196372
  outer loop
    vertex 5.5 2.4999999999999996 78.0
    vertex 3.0 2.4999999999999996 75.50000000000001
    vertex 5.41481456572267 3.147047612756302 78.0
  endloop
endfacet
facet normal 0.656081890078314 0.27175801689781304 -0.7040625922196373
  outer loop
    vertex 5.41481456572267 3.147047612756302 78.0
    vertex 3.0 2.4999999999999996 75.50000000000001
    vertex 5.165063509461096 3.7499999999999996 78.0
  endloop
endfacet
facet normal 0.563390291354744 0.4323045753218231 -0.7040625922196371
  outer loop
    vertex 5.165063509461096 3.7499999999999996 78.0
    vertex 3.0 2.4999999999999996 75.50000000000001
    vertex 4.767766952966369 4.267766952966368 78.0
  endloop
endfacet
facet normal 0.43230457532182465 0.5633902913547431 -0.704062592219637
  outer loop
    vertex 4.767766952966369 4.267766952966368 78.0
    vertex 3.0 2.4999999999999996 75.50000000000001
    vertex 4.25 4.665063509461096 78.0
  endloop
endfacet
facet normal 0.27175801689781137 0.6560818900783146 -0.7040625922196374
  outer loop
    vertex 4.25 4.665063509461096 78.0
    vertex 3.0 2.4999999999999996 75.50000000000001
    vertex 3.6470476127563023 4.91481456572267 78.0
  endloop
endfacet
facet normal 1.0 -0.0 -0.0
  outer loop
    vertex 3.0 4.999999999999999 3.0
    vertex 3.0 0.0 78.0
    vertex 3.0 0.0 3.0
  endloop
endfacet
facet normal 1.0 -0.0 -0.0
  outer loop
    vertex 3.0 0.0 78.0
    vertex 3.0 4.999999999999999 3.0
    vertex 3.0 2.4999999999999996 75.50000000000001
  endloop
endfacet
facet normal 1.0 -0.0 -0.0
  outer loop
    vertex 3.0 2.4999999999999996 75.50000000000001
    vertex 3.0 4.999999999999999 3.0
    vertex 3.0 4.999999999999999 78.0
  endloop
endfacet
facet normal 0.09269159872357081 0.704062592219636 -0.7040625922196372
  outer loop
    vertex 3.6470476127563023 4.91481456572267 78.0
    vertex 3.0 2.4999999999999996 75.50000000000001
    vertex 3.0 4.999999999999999 78.0
  endloop
endfacet
endsolid Nova_moute_case_v2
